<svg width="353" height="287" viewBox="0 0 353 287" fill="none" xmlns="http://www.w3.org/2000/svg">
<path d="M4.716 117.265V89.4933H53.0987V217H22.008V117.265H4.716Z" fill="#FA5D48" fill-opacity="0.22"/>
<path opacity="0.8" d="M138 0.5L2 249H190L322 0.5H138Z" fill="url(#paint0_linear)"/>
<path d="M120.156 117.55V120.375H112.881V124.85H118.456V127.625H112.881V135H109.381V117.55H120.156ZM124.413 119.5C123.796 119.5 123.28 119.308 122.863 118.925C122.463 118.525 122.263 118.033 122.263 117.45C122.263 116.867 122.463 116.383 122.863 116C123.28 115.6 123.796 115.4 124.413 115.4C125.03 115.4 125.538 115.6 125.938 116C126.355 116.383 126.563 116.867 126.563 117.45C126.563 118.033 126.355 118.525 125.938 118.925C125.538 119.308 125.03 119.5 124.413 119.5ZM126.138 121.15V135H122.638V121.15H126.138ZM137.271 120.95C138.921 120.95 140.254 121.475 141.271 122.525C142.288 123.558 142.796 125.008 142.796 126.875V135H139.296V127.35C139.296 126.25 139.021 125.408 138.471 124.825C137.921 124.225 137.171 123.925 136.221 123.925C135.254 123.925 134.488 124.225 133.921 124.825C133.371 125.408 133.096 126.25 133.096 127.35V135H129.596V121.15H133.096V122.875C133.563 122.275 134.154 121.808 134.871 121.475C135.604 121.125 136.404 120.95 137.271 120.95ZM145.224 128.025C145.224 126.625 145.499 125.383 146.049 124.3C146.616 123.217 147.383 122.383 148.349 121.8C149.316 121.217 150.391 120.925 151.574 120.925C152.474 120.925 153.333 121.125 154.149 121.525C154.966 121.908 155.616 122.425 156.099 123.075V116.5H159.649V135H156.099V132.95C155.666 133.633 155.058 134.183 154.274 134.6C153.491 135.017 152.583 135.225 151.549 135.225C150.383 135.225 149.316 134.925 148.349 134.325C147.383 133.725 146.616 132.883 146.049 131.8C145.499 130.7 145.224 129.442 145.224 128.025ZM156.124 128.075C156.124 127.225 155.958 126.5 155.624 125.9C155.291 125.283 154.841 124.817 154.274 124.5C153.708 124.167 153.099 124 152.449 124C151.799 124 151.199 124.158 150.649 124.475C150.099 124.792 149.649 125.258 149.299 125.875C148.966 126.475 148.799 127.192 148.799 128.025C148.799 128.858 148.966 129.592 149.299 130.225C149.649 130.842 150.099 131.317 150.649 131.65C151.216 131.983 151.816 132.15 152.449 132.15C153.099 132.15 153.708 131.992 154.274 131.675C154.841 131.342 155.291 130.875 155.624 130.275C155.958 129.658 156.124 128.925 156.124 128.075ZM188.225 121.15L184.175 135H180.4L177.875 125.325L175.35 135H171.55L167.475 121.15H171.025L173.475 131.7L176.125 121.15H179.825L182.425 131.675L184.875 121.15H188.225ZM197.919 120.95C198.969 120.95 199.902 121.183 200.719 121.65C201.535 122.1 202.169 122.775 202.619 123.675C203.085 124.558 203.319 125.625 203.319 126.875V135H199.819V127.35C199.819 126.25 199.544 125.408 198.994 124.825C198.444 124.225 197.694 123.925 196.744 123.925C195.777 123.925 195.01 124.225 194.444 124.825C193.894 125.408 193.619 126.25 193.619 127.35V135H190.119V116.5H193.619V122.875C194.069 122.275 194.669 121.808 195.419 121.475C196.169 121.125 197.002 120.95 197.919 120.95ZM208.422 119.5C207.805 119.5 207.289 119.308 206.872 118.925C206.472 118.525 206.272 118.033 206.272 117.45C206.272 116.867 206.472 116.383 206.872 116C207.289 115.6 207.805 115.4 208.422 115.4C209.039 115.4 209.547 115.6 209.947 116C210.364 116.383 210.572 116.867 210.572 117.45C210.572 118.033 210.364 118.525 209.947 118.925C209.547 119.308 209.039 119.5 208.422 119.5ZM210.147 121.15V135H206.647V121.15H210.147ZM212.705 128.075C212.705 126.642 212.997 125.392 213.58 124.325C214.163 123.242 214.972 122.408 216.005 121.825C217.038 121.225 218.222 120.925 219.555 120.925C221.272 120.925 222.688 121.358 223.805 122.225C224.938 123.075 225.697 124.275 226.08 125.825H222.305C222.105 125.225 221.763 124.758 221.28 124.425C220.813 124.075 220.23 123.9 219.53 123.9C218.53 123.9 217.738 124.267 217.155 125C216.572 125.717 216.28 126.742 216.28 128.075C216.28 129.392 216.572 130.417 217.155 131.15C217.738 131.867 218.53 132.225 219.53 132.225C220.947 132.225 221.872 131.592 222.305 130.325H226.08C225.697 131.825 224.938 133.017 223.805 133.9C222.672 134.783 221.255 135.225 219.555 135.225C218.222 135.225 217.038 134.933 216.005 134.35C214.972 133.75 214.163 132.917 213.58 131.85C212.997 130.767 212.705 129.508 212.705 128.075ZM236.444 120.95C237.494 120.95 238.427 121.183 239.244 121.65C240.061 122.1 240.694 122.775 241.144 123.675C241.611 124.558 241.844 125.625 241.844 126.875V135H238.344V127.35C238.344 126.25 238.069 125.408 237.519 124.825C236.969 124.225 236.219 123.925 235.269 123.925C234.302 123.925 233.536 124.225 232.969 124.825C232.419 125.408 232.144 126.25 232.144 127.35V135H228.644V116.5H232.144V122.875C232.594 122.275 233.194 121.808 233.944 121.475C234.694 121.125 235.527 120.95 236.444 120.95ZM84.6531 166.075C84.6531 164.642 84.9448 163.392 85.5281 162.325C86.1115 161.242 86.9198 160.408 87.9531 159.825C88.9865 159.225 90.1698 158.925 91.5031 158.925C93.2198 158.925 94.6365 159.358 95.7531 160.225C96.8865 161.075 97.6448 162.275 98.0281 163.825H94.2531C94.0531 163.225 93.7115 162.758 93.2281 162.425C92.7615 162.075 92.1781 161.9 91.4781 161.9C90.4781 161.9 89.6865 162.267 89.1031 163C88.5198 163.717 88.2281 164.742 88.2281 166.075C88.2281 167.392 88.5198 168.417 89.1031 169.15C89.6865 169.867 90.4781 170.225 91.4781 170.225C92.8948 170.225 93.8198 169.592 94.2531 168.325H98.0281C97.6448 169.825 96.8865 171.017 95.7531 171.9C94.6198 172.783 93.2031 173.225 91.5031 173.225C90.1698 173.225 88.9865 172.933 87.9531 172.35C86.9198 171.75 86.1115 170.917 85.5281 169.85C84.9448 168.767 84.6531 167.508 84.6531 166.075ZM99.6922 166.025C99.6922 164.625 99.9672 163.383 100.517 162.3C101.084 161.217 101.842 160.383 102.792 159.8C103.759 159.217 104.834 158.925 106.017 158.925C107.051 158.925 107.951 159.133 108.717 159.55C109.501 159.967 110.126 160.492 110.592 161.125V159.15H114.117V173H110.592V170.975C110.142 171.625 109.517 172.167 108.717 172.6C107.934 173.017 107.026 173.225 105.992 173.225C104.826 173.225 103.759 172.925 102.792 172.325C101.842 171.725 101.084 170.883 100.517 169.8C99.9672 168.7 99.6922 167.442 99.6922 166.025ZM110.592 166.075C110.592 165.225 110.426 164.5 110.092 163.9C109.759 163.283 109.309 162.817 108.742 162.5C108.176 162.167 107.567 162 106.917 162C106.267 162 105.667 162.158 105.117 162.475C104.567 162.792 104.117 163.258 103.767 163.875C103.434 164.475 103.267 165.192 103.267 166.025C103.267 166.858 103.434 167.592 103.767 168.225C104.117 168.842 104.567 169.317 105.117 169.65C105.684 169.983 106.284 170.15 106.917 170.15C107.567 170.15 108.176 169.992 108.742 169.675C109.309 169.342 109.759 168.875 110.092 168.275C110.426 167.658 110.592 166.925 110.592 166.075ZM130.611 159.15V173H127.086V171.25C126.636 171.85 126.044 172.325 125.311 172.675C124.594 173.008 123.811 173.175 122.961 173.175C121.877 173.175 120.919 172.95 120.086 172.5C119.252 172.033 118.594 171.358 118.111 170.475C117.644 169.575 117.411 168.508 117.411 167.275V159.15H120.911V166.775C120.911 167.875 121.186 168.725 121.736 169.325C122.286 169.908 123.036 170.2 123.986 170.2C124.952 170.2 125.711 169.908 126.261 169.325C126.811 168.725 127.086 167.875 127.086 166.775V159.15H130.611ZM139.364 173.225C138.231 173.225 137.214 173.025 136.314 172.625C135.414 172.208 134.697 171.65 134.164 170.95C133.647 170.25 133.364 169.475 133.314 168.625H136.839C136.906 169.158 137.164 169.6 137.614 169.95C138.081 170.3 138.656 170.475 139.339 170.475C140.006 170.475 140.522 170.342 140.889 170.075C141.272 169.808 141.464 169.467 141.464 169.05C141.464 168.6 141.231 168.267 140.764 168.05C140.314 167.817 139.589 167.567 138.589 167.3C137.556 167.05 136.706 166.792 136.039 166.525C135.389 166.258 134.822 165.85 134.339 165.3C133.872 164.75 133.639 164.008 133.639 163.075C133.639 162.308 133.856 161.608 134.289 160.975C134.739 160.342 135.372 159.842 136.189 159.475C137.022 159.108 137.997 158.925 139.114 158.925C140.764 158.925 142.081 159.342 143.064 160.175C144.047 160.992 144.589 162.1 144.689 163.5H141.339C141.289 162.95 141.056 162.517 140.639 162.2C140.239 161.867 139.697 161.7 139.014 161.7C138.381 161.7 137.889 161.817 137.539 162.05C137.206 162.283 137.039 162.608 137.039 163.025C137.039 163.492 137.272 163.85 137.739 164.1C138.206 164.333 138.931 164.575 139.914 164.825C140.914 165.075 141.739 165.333 142.389 165.6C143.039 165.867 143.597 166.283 144.064 166.85C144.547 167.4 144.797 168.133 144.814 169.05C144.814 169.85 144.589 170.567 144.139 171.2C143.706 171.833 143.072 172.333 142.239 172.7C141.422 173.05 140.464 173.225 139.364 173.225ZM160.562 165.775C160.562 166.275 160.529 166.725 160.462 167.125H150.337C150.42 168.125 150.77 168.908 151.387 169.475C152.004 170.042 152.762 170.325 153.662 170.325C154.962 170.325 155.887 169.767 156.437 168.65H160.212C159.812 169.983 159.045 171.083 157.912 171.95C156.779 172.8 155.387 173.225 153.737 173.225C152.404 173.225 151.204 172.933 150.137 172.35C149.087 171.75 148.262 170.908 147.662 169.825C147.079 168.742 146.787 167.492 146.787 166.075C146.787 164.642 147.079 163.383 147.662 162.3C148.245 161.217 149.062 160.383 150.112 159.8C151.162 159.217 152.37 158.925 153.737 158.925C155.054 158.925 156.229 159.208 157.262 159.775C158.312 160.342 159.12 161.15 159.687 162.2C160.27 163.233 160.562 164.425 160.562 165.775ZM156.937 164.775C156.92 163.875 156.595 163.158 155.962 162.625C155.329 162.075 154.554 161.8 153.637 161.8C152.77 161.8 152.037 162.067 151.437 162.6C150.854 163.117 150.495 163.842 150.362 164.775H156.937ZM170.849 157.5C170.232 157.5 169.715 157.308 169.299 156.925C168.899 156.525 168.699 156.033 168.699 155.45C168.699 154.867 168.899 154.383 169.299 154C169.715 153.6 170.232 153.4 170.849 153.4C171.465 153.4 171.974 153.6 172.374 154C172.79 154.383 172.999 154.867 172.999 155.45C172.999 156.033 172.79 156.525 172.374 156.925C171.974 157.308 171.465 157.5 170.849 157.5ZM172.574 159.15V173H169.074V159.15H172.574ZM181.332 173.225C180.198 173.225 179.182 173.025 178.282 172.625C177.382 172.208 176.665 171.65 176.132 170.95C175.615 170.25 175.332 169.475 175.282 168.625H178.807C178.873 169.158 179.132 169.6 179.582 169.95C180.048 170.3 180.623 170.475 181.307 170.475C181.973 170.475 182.49 170.342 182.857 170.075C183.24 169.808 183.432 169.467 183.432 169.05C183.432 168.6 183.198 168.267 182.732 168.05C182.282 167.817 181.557 167.567 180.557 167.3C179.523 167.05 178.673 166.792 178.007 166.525C177.357 166.258 176.79 165.85 176.307 165.3C175.84 164.75 175.607 164.008 175.607 163.075C175.607 162.308 175.823 161.608 176.257 160.975C176.707 160.342 177.34 159.842 178.157 159.475C178.99 159.108 179.965 158.925 181.082 158.925C182.732 158.925 184.048 159.342 185.032 160.175C186.015 160.992 186.557 162.1 186.657 163.5H183.307C183.257 162.95 183.023 162.517 182.607 162.2C182.207 161.867 181.665 161.7 180.982 161.7C180.348 161.7 179.857 161.817 179.507 162.05C179.173 162.283 179.007 162.608 179.007 163.025C179.007 163.492 179.24 163.85 179.707 164.1C180.173 164.333 180.898 164.575 181.882 164.825C182.882 165.075 183.707 165.333 184.357 165.6C185.007 165.867 185.565 166.283 186.032 166.85C186.515 167.4 186.765 168.133 186.782 169.05C186.782 169.85 186.557 170.567 186.107 171.2C185.673 171.833 185.04 172.333 184.207 172.7C183.39 173.05 182.432 173.225 181.332 173.225ZM194.712 166.075C194.712 164.642 195.003 163.392 195.587 162.325C196.17 161.242 196.978 160.408 198.012 159.825C199.045 159.225 200.228 158.925 201.562 158.925C203.278 158.925 204.695 159.358 205.812 160.225C206.945 161.075 207.703 162.275 208.087 163.825H204.312C204.112 163.225 203.77 162.758 203.287 162.425C202.82 162.075 202.237 161.9 201.537 161.9C200.537 161.9 199.745 162.267 199.162 163C198.578 163.717 198.287 164.742 198.287 166.075C198.287 167.392 198.578 168.417 199.162 169.15C199.745 169.867 200.537 170.225 201.537 170.225C202.953 170.225 203.878 169.592 204.312 168.325H208.087C207.703 169.825 206.945 171.017 205.812 171.9C204.678 172.783 203.262 173.225 201.562 173.225C200.228 173.225 199.045 172.933 198.012 172.35C196.978 171.75 196.17 170.917 195.587 169.85C195.003 168.767 194.712 167.508 194.712 166.075ZM214.151 154.5V173H210.651V154.5H214.151ZM223.759 173.225C222.425 173.225 221.225 172.933 220.159 172.35C219.092 171.75 218.25 170.908 217.634 169.825C217.034 168.742 216.734 167.492 216.734 166.075C216.734 164.658 217.042 163.408 217.659 162.325C218.292 161.242 219.15 160.408 220.234 159.825C221.317 159.225 222.525 158.925 223.859 158.925C225.192 158.925 226.4 159.225 227.484 159.825C228.567 160.408 229.417 161.242 230.034 162.325C230.667 163.408 230.984 164.658 230.984 166.075C230.984 167.492 230.659 168.742 230.009 169.825C229.375 170.908 228.509 171.75 227.409 172.35C226.325 172.933 225.109 173.225 223.759 173.225ZM223.759 170.175C224.392 170.175 224.984 170.025 225.534 169.725C226.1 169.408 226.55 168.942 226.884 168.325C227.217 167.708 227.384 166.958 227.384 166.075C227.384 164.758 227.034 163.75 226.334 163.05C225.65 162.333 224.809 161.975 223.809 161.975C222.809 161.975 221.967 162.333 221.284 163.05C220.617 163.75 220.284 164.758 220.284 166.075C220.284 167.392 220.609 168.408 221.259 169.125C221.925 169.825 222.759 170.175 223.759 170.175ZM238.851 173.225C237.718 173.225 236.701 173.025 235.801 172.625C234.901 172.208 234.185 171.65 233.651 170.95C233.135 170.25 232.851 169.475 232.801 168.625H236.326C236.393 169.158 236.651 169.6 237.101 169.95C237.568 170.3 238.143 170.475 238.826 170.475C239.493 170.475 240.01 170.342 240.376 170.075C240.76 169.808 240.951 169.467 240.951 169.05C240.951 168.6 240.718 168.267 240.251 168.05C239.801 167.817 239.076 167.567 238.076 167.3C237.043 167.05 236.193 166.792 235.526 166.525C234.876 166.258 234.31 165.85 233.826 165.3C233.36 164.75 233.126 164.008 233.126 163.075C233.126 162.308 233.343 161.608 233.776 160.975C234.226 160.342 234.86 159.842 235.676 159.475C236.51 159.108 237.485 158.925 238.601 158.925C240.251 158.925 241.568 159.342 242.551 160.175C243.535 160.992 244.076 162.1 244.176 163.5H240.826C240.776 162.95 240.543 162.517 240.126 162.2C239.726 161.867 239.185 161.7 238.501 161.7C237.868 161.7 237.376 161.817 237.026 162.05C236.693 162.283 236.526 162.608 236.526 163.025C236.526 163.492 236.76 163.85 237.226 164.1C237.693 164.333 238.418 164.575 239.401 164.825C240.401 165.075 241.226 165.333 241.876 165.6C242.526 165.867 243.085 166.283 243.551 166.85C244.035 167.4 244.285 168.133 244.301 169.05C244.301 169.85 244.076 170.567 243.626 171.2C243.193 171.833 242.56 172.333 241.726 172.7C240.91 173.05 239.951 173.225 238.851 173.225ZM260.049 165.775C260.049 166.275 260.016 166.725 259.949 167.125H249.824C249.908 168.125 250.258 168.908 250.874 169.475C251.491 170.042 252.249 170.325 253.149 170.325C254.449 170.325 255.374 169.767 255.924 168.65H259.699C259.299 169.983 258.533 171.083 257.399 171.95C256.266 172.8 254.874 173.225 253.224 173.225C251.891 173.225 250.691 172.933 249.624 172.35C248.574 171.75 247.749 170.908 247.149 169.825C246.566 168.742 246.274 167.492 246.274 166.075C246.274 164.642 246.566 163.383 247.149 162.3C247.733 161.217 248.549 160.383 249.599 159.8C250.649 159.217 251.858 158.925 253.224 158.925C254.541 158.925 255.716 159.208 256.749 159.775C257.799 160.342 258.608 161.15 259.174 162.2C259.758 163.233 260.049 164.425 260.049 165.775ZM256.424 164.775C256.408 163.875 256.083 163.158 255.449 162.625C254.816 162.075 254.041 161.8 253.124 161.8C252.258 161.8 251.524 162.067 250.924 162.6C250.341 163.117 249.983 163.842 249.849 164.775H256.424ZM266.104 161.3C266.554 160.567 267.137 159.992 267.854 159.575C268.587 159.158 269.421 158.95 270.354 158.95V162.625H269.429C268.329 162.625 267.496 162.883 266.929 163.4C266.379 163.917 266.104 164.817 266.104 166.1V173H262.604V159.15H266.104V161.3ZM282.743 162.025V168.725C282.743 169.192 282.852 169.533 283.068 169.75C283.302 169.95 283.685 170.05 284.218 170.05H285.843V173H283.643C280.693 173 279.218 171.567 279.218 168.7V162.025H277.568V159.15H279.218V155.725H282.743V159.15H285.843V162.025H282.743ZM294.511 173.225C293.177 173.225 291.977 172.933 290.911 172.35C289.844 171.75 289.002 170.908 288.386 169.825C287.786 168.742 287.486 167.492 287.486 166.075C287.486 164.658 287.794 163.408 288.411 162.325C289.044 161.242 289.902 160.408 290.986 159.825C292.069 159.225 293.277 158.925 294.611 158.925C295.944 158.925 297.152 159.225 298.236 159.825C299.319 160.408 300.169 161.242 300.786 162.325C301.419 163.408 301.736 164.658 301.736 166.075C301.736 167.492 301.411 168.742 300.761 169.825C300.127 170.908 299.261 171.75 298.161 172.35C297.077 172.933 295.861 173.225 294.511 173.225ZM294.511 170.175C295.144 170.175 295.736 170.025 296.286 169.725C296.852 169.408 297.302 168.942 297.636 168.325C297.969 167.708 298.136 166.958 298.136 166.075C298.136 164.758 297.786 163.75 297.086 163.05C296.402 162.333 295.561 161.975 294.561 161.975C293.561 161.975 292.719 162.333 292.036 163.05C291.369 163.75 291.036 164.758 291.036 166.075C291.036 167.392 291.361 168.408 292.011 169.125C292.677 169.825 293.511 170.175 294.511 170.175ZM74.975 197.15L66.4 217.55H62.675L65.675 210.65L60.125 197.15H64.05L67.625 206.825L71.25 197.15H74.975ZM83.0117 211.225C81.6784 211.225 80.4784 210.933 79.4117 210.35C78.3451 209.75 77.5034 208.908 76.8867 207.825C76.2867 206.742 75.9867 205.492 75.9867 204.075C75.9867 202.658 76.2951 201.408 76.9117 200.325C77.5451 199.242 78.4034 198.408 79.4867 197.825C80.5701 197.225 81.7784 196.925 83.1117 196.925C84.4451 196.925 85.6534 197.225 86.7367 197.825C87.8201 198.408 88.6701 199.242 89.2867 200.325C89.9201 201.408 90.2367 202.658 90.2367 204.075C90.2367 205.492 89.9117 206.742 89.2617 207.825C88.6284 208.908 87.7617 209.75 86.6617 210.35C85.5784 210.933 84.3617 211.225 83.0117 211.225ZM83.0117 208.175C83.6451 208.175 84.2367 208.025 84.7867 207.725C85.3534 207.408 85.8034 206.942 86.1367 206.325C86.4701 205.708 86.6367 204.958 86.6367 204.075C86.6367 202.758 86.2867 201.75 85.5867 201.05C84.9034 200.333 84.0617 199.975 83.0617 199.975C82.0617 199.975 81.2201 200.333 80.5367 201.05C79.8701 201.75 79.5367 202.758 79.5367 204.075C79.5367 205.392 79.8617 206.408 80.5117 207.125C81.1784 207.825 82.0117 208.175 83.0117 208.175ZM105.879 197.15V211H102.354V209.25C101.904 209.85 101.312 210.325 100.579 210.675C99.8624 211.008 99.0791 211.175 98.2291 211.175C97.1458 211.175 96.1874 210.95 95.3541 210.5C94.5208 210.033 93.8624 209.358 93.3791 208.475C92.9124 207.575 92.6791 206.508 92.6791 205.275V197.15H96.1791V204.775C96.1791 205.875 96.4541 206.725 97.0041 207.325C97.5541 207.908 98.3041 208.2 99.2541 208.2C100.221 208.2 100.979 207.908 101.529 207.325C102.079 206.725 102.354 205.875 102.354 204.775V197.15H105.879ZM112.832 199.3C113.282 198.567 113.866 197.992 114.582 197.575C115.316 197.158 116.149 196.95 117.082 196.95V200.625H116.157C115.057 200.625 114.224 200.883 113.657 201.4C113.107 201.917 112.832 202.817 112.832 204.1V211H109.332V197.15H112.832V199.3ZM133.197 196.95C134.247 196.95 135.18 197.183 135.997 197.65C136.814 198.1 137.447 198.775 137.897 199.675C138.364 200.558 138.597 201.625 138.597 202.875V211H135.097V203.35C135.097 202.25 134.822 201.408 134.272 200.825C133.722 200.225 132.972 199.925 132.022 199.925C131.055 199.925 130.289 200.225 129.722 200.825C129.172 201.408 128.897 202.25 128.897 203.35V211H125.397V192.5H128.897V198.875C129.347 198.275 129.947 197.808 130.697 197.475C131.447 197.125 132.28 196.95 133.197 196.95ZM154.8 203.775C154.8 204.275 154.767 204.725 154.7 205.125H144.575C144.659 206.125 145.009 206.908 145.625 207.475C146.242 208.042 147 208.325 147.9 208.325C149.2 208.325 150.125 207.767 150.675 206.65H154.45C154.05 207.983 153.284 209.083 152.15 209.95C151.017 210.8 149.625 211.225 147.975 211.225C146.642 211.225 145.442 210.933 144.375 210.35C143.325 209.75 142.5 208.908 141.9 207.825C141.317 206.742 141.025 205.492 141.025 204.075C141.025 202.642 141.317 201.383 141.9 200.3C142.484 199.217 143.3 198.383 144.35 197.8C145.4 197.217 146.609 196.925 147.975 196.925C149.292 196.925 150.467 197.208 151.5 197.775C152.55 198.342 153.359 199.15 153.925 200.2C154.509 201.233 154.8 202.425 154.8 203.775ZM151.175 202.775C151.159 201.875 150.834 201.158 150.2 200.625C149.567 200.075 148.792 199.8 147.875 199.8C147.009 199.8 146.275 200.067 145.675 200.6C145.092 201.117 144.734 201.842 144.6 202.775H151.175ZM156.455 204.025C156.455 202.625 156.73 201.383 157.28 200.3C157.847 199.217 158.605 198.383 159.555 197.8C160.522 197.217 161.597 196.925 162.78 196.925C163.813 196.925 164.713 197.133 165.48 197.55C166.263 197.967 166.888 198.492 167.355 199.125V197.15H170.88V211H167.355V208.975C166.905 209.625 166.28 210.167 165.48 210.6C164.697 211.017 163.788 211.225 162.755 211.225C161.588 211.225 160.522 210.925 159.555 210.325C158.605 209.725 157.847 208.883 157.28 207.8C156.73 206.7 156.455 205.442 156.455 204.025ZM167.355 204.075C167.355 203.225 167.188 202.5 166.855 201.9C166.522 201.283 166.072 200.817 165.505 200.5C164.938 200.167 164.33 200 163.68 200C163.03 200 162.43 200.158 161.88 200.475C161.33 200.792 160.88 201.258 160.53 201.875C160.197 202.475 160.03 203.192 160.03 204.025C160.03 204.858 160.197 205.592 160.53 206.225C160.88 206.842 161.33 207.317 161.88 207.65C162.447 207.983 163.047 208.15 163.68 208.15C164.33 208.15 164.938 207.992 165.505 207.675C166.072 207.342 166.522 206.875 166.855 206.275C167.188 205.658 167.355 204.925 167.355 204.075ZM177.798 199.3C178.248 198.567 178.832 197.992 179.548 197.575C180.282 197.158 181.115 196.95 182.048 196.95V200.625H181.123C180.023 200.625 179.19 200.883 178.623 201.4C178.073 201.917 177.798 202.817 177.798 204.1V211H174.298V197.15H177.798V199.3ZM188.481 200.025V206.725C188.481 207.192 188.589 207.533 188.806 207.75C189.039 207.95 189.422 208.05 189.956 208.05H191.581V211H189.381C186.431 211 184.956 209.567 184.956 206.7V200.025H183.306V197.15H184.956V193.725H188.481V197.15H191.581V200.025H188.481Z" fill="#FA5D48"/>
<defs>
<linearGradient id="paint0_linear" x1="246.5" y1="263.5" x2="322" y2="80.5" gradientUnits="userSpaceOnUse">
<stop stop-color="#2255FF"/>
<stop offset="0.526042" stop-color="#2255FF" stop-opacity="0.28125"/>
<stop offset="1" stop-color="#2D2D2D" stop-opacity="0"/>
</linearGradient>
</defs>
</svg>
