<svg width="322" height="287" viewBox="0 0 322 287" fill="none" xmlns="http://www.w3.org/2000/svg">
<path d="M8.908 124.975C9.37378 112.515 13.4493 102.908 21.1347 96.1547C28.82 89.4009 39.2418 86.024 52.4 86.024C61.1333 86.024 68.5858 87.5378 74.7573 90.5653C81.0453 93.5929 85.7613 97.7267 88.9053 102.967C92.1658 108.207 93.796 114.087 93.796 120.608C93.796 128.293 91.8747 134.581 88.032 139.472C84.1893 144.246 79.7062 147.507 74.5827 149.253V149.952C81.22 152.164 86.46 155.832 90.3027 160.956C94.1453 166.08 96.0667 172.659 96.0667 180.693C96.0667 187.913 94.3782 194.317 91.0013 199.907C87.7409 205.38 82.9085 209.688 76.504 212.832C70.216 215.976 62.7053 217.548 53.972 217.548C39.9987 217.548 28.82 214.113 20.436 207.243C12.1684 200.372 7.80178 190.009 7.336 176.152H36.3307C36.4471 181.276 37.9027 185.351 40.6973 188.379C43.492 191.29 47.5676 192.745 52.924 192.745C57.4653 192.745 60.9587 191.464 63.404 188.903C65.9658 186.224 67.2467 182.731 67.2467 178.423C67.2467 172.833 65.4418 168.816 61.832 166.371C58.3387 163.809 52.6911 162.528 44.8893 162.528H39.3V138.249H44.8893C50.828 138.249 55.6022 137.26 59.212 135.28C62.9382 133.184 64.8013 129.516 64.8013 124.276C64.8013 120.084 63.6369 116.824 61.308 114.495C58.9791 112.166 55.7769 111.001 51.7013 111.001C47.2764 111.001 43.9578 112.34 41.7453 115.019C39.6493 117.697 38.4267 121.016 38.0773 124.975H8.908Z" fill="#FA5D48" fill-opacity="0.22"/>
<path opacity="0.8" d="M138 0L2 248.5H190L322 0H138Z" fill="url(#paint0_linear)"/>
<path d="M118.406 129.55V147H114.906V135.65L110.231 147H107.581L102.881 135.65V147H99.3813V129.55H103.356L108.906 142.525L114.456 129.55H118.406ZM120.967 140.025C120.967 138.625 121.242 137.383 121.792 136.3C122.358 135.217 123.117 134.383 124.067 133.8C125.033 133.217 126.108 132.925 127.292 132.925C128.325 132.925 129.225 133.133 129.992 133.55C130.775 133.967 131.4 134.492 131.867 135.125V133.15H135.392V147H131.867V144.975C131.417 145.625 130.792 146.167 129.992 146.6C129.208 147.017 128.3 147.225 127.267 147.225C126.1 147.225 125.033 146.925 124.067 146.325C123.117 145.725 122.358 144.883 121.792 143.8C121.242 142.7 120.967 141.442 120.967 140.025ZM131.867 140.075C131.867 139.225 131.7 138.5 131.367 137.9C131.033 137.283 130.583 136.817 130.017 136.5C129.45 136.167 128.842 136 128.192 136C127.542 136 126.942 136.158 126.392 136.475C125.842 136.792 125.392 137.258 125.042 137.875C124.708 138.475 124.542 139.192 124.542 140.025C124.542 140.858 124.708 141.592 125.042 142.225C125.392 142.842 125.842 143.317 126.392 143.65C126.958 143.983 127.558 144.15 128.192 144.15C128.842 144.15 129.45 143.992 130.017 143.675C130.583 143.342 131.033 142.875 131.367 142.275C131.7 141.658 131.867 140.925 131.867 140.075ZM147.01 147L142.31 141.1V147H138.81V128.5H142.31V139.025L146.96 133.15H151.51L145.41 140.1L151.56 147H147.01ZM166.285 139.775C166.285 140.275 166.251 140.725 166.185 141.125H156.06C156.143 142.125 156.493 142.908 157.11 143.475C157.726 144.042 158.485 144.325 159.385 144.325C160.685 144.325 161.61 143.767 162.16 142.65H165.935C165.535 143.983 164.768 145.083 163.635 145.95C162.501 146.8 161.11 147.225 159.46 147.225C158.126 147.225 156.926 146.933 155.86 146.35C154.81 145.75 153.985 144.908 153.385 143.825C152.801 142.742 152.51 141.492 152.51 140.075C152.51 138.642 152.801 137.383 153.385 136.3C153.968 135.217 154.785 134.383 155.835 133.8C156.885 133.217 158.093 132.925 159.46 132.925C160.776 132.925 161.951 133.208 162.985 133.775C164.035 134.342 164.843 135.15 165.41 136.2C165.993 137.233 166.285 138.425 166.285 139.775ZM162.66 138.775C162.643 137.875 162.318 137.158 161.685 136.625C161.051 136.075 160.276 135.8 159.36 135.8C158.493 135.8 157.76 136.067 157.16 136.6C156.576 137.117 156.218 137.842 156.085 138.775H162.66ZM188.046 133.15L179.471 153.55H175.746L178.746 146.65L173.196 133.15H177.121L180.696 142.825L184.321 133.15H188.046ZM196.083 147.225C194.75 147.225 193.55 146.933 192.483 146.35C191.416 145.75 190.575 144.908 189.958 143.825C189.358 142.742 189.058 141.492 189.058 140.075C189.058 138.658 189.366 137.408 189.983 136.325C190.616 135.242 191.475 134.408 192.558 133.825C193.641 133.225 194.85 132.925 196.183 132.925C197.516 132.925 198.725 133.225 199.808 133.825C200.891 134.408 201.741 135.242 202.358 136.325C202.991 137.408 203.308 138.658 203.308 140.075C203.308 141.492 202.983 142.742 202.333 143.825C201.7 144.908 200.833 145.75 199.733 146.35C198.65 146.933 197.433 147.225 196.083 147.225ZM196.083 144.175C196.716 144.175 197.308 144.025 197.858 143.725C198.425 143.408 198.875 142.942 199.208 142.325C199.541 141.708 199.708 140.958 199.708 140.075C199.708 138.758 199.358 137.75 198.658 137.05C197.975 136.333 197.133 135.975 196.133 135.975C195.133 135.975 194.291 136.333 193.608 137.05C192.941 137.75 192.608 138.758 192.608 140.075C192.608 141.392 192.933 142.408 193.583 143.125C194.25 143.825 195.083 144.175 196.083 144.175ZM218.95 133.15V147H215.425V145.25C214.975 145.85 214.384 146.325 213.65 146.675C212.934 147.008 212.15 147.175 211.3 147.175C210.217 147.175 209.259 146.95 208.425 146.5C207.592 146.033 206.934 145.358 206.45 144.475C205.984 143.575 205.75 142.508 205.75 141.275V133.15H209.25V140.775C209.25 141.875 209.525 142.725 210.075 143.325C210.625 143.908 211.375 144.2 212.325 144.2C213.292 144.2 214.05 143.908 214.6 143.325C215.15 142.725 215.425 141.875 215.425 140.775V133.15H218.95ZM225.904 135.3C226.354 134.567 226.937 133.992 227.654 133.575C228.387 133.158 229.22 132.95 230.154 132.95V136.625H229.229C228.129 136.625 227.295 136.883 226.729 137.4C226.179 137.917 225.904 138.817 225.904 140.1V147H222.404V133.15H225.904V135.3ZM92.7531 170.95C94.4531 170.95 95.8198 171.475 96.8531 172.525C97.9031 173.558 98.4281 175.008 98.4281 176.875V185H94.9281V177.35C94.9281 176.267 94.6531 175.442 94.1031 174.875C93.5531 174.292 92.8031 174 91.8531 174C90.9031 174 90.1448 174.292 89.5781 174.875C89.0281 175.442 88.7531 176.267 88.7531 177.35V185H85.2531V177.35C85.2531 176.267 84.9781 175.442 84.4281 174.875C83.8781 174.292 83.1281 174 82.1781 174C81.2115 174 80.4448 174.292 79.8781 174.875C79.3281 175.442 79.0531 176.267 79.0531 177.35V185H75.5531V171.15H79.0531V172.825C79.5031 172.242 80.0781 171.783 80.7781 171.45C81.4948 171.117 82.2781 170.95 83.1281 170.95C84.2115 170.95 85.1781 171.183 86.0281 171.65C86.8781 172.1 87.5365 172.75 88.0031 173.6C88.4531 172.8 89.1031 172.158 89.9531 171.675C90.8198 171.192 91.7531 170.95 92.7531 170.95ZM100.849 178.025C100.849 176.625 101.124 175.383 101.674 174.3C102.241 173.217 102.999 172.383 103.949 171.8C104.916 171.217 105.991 170.925 107.174 170.925C108.208 170.925 109.108 171.133 109.874 171.55C110.658 171.967 111.283 172.492 111.749 173.125V171.15H115.274V185H111.749V182.975C111.299 183.625 110.674 184.167 109.874 184.6C109.091 185.017 108.183 185.225 107.149 185.225C105.983 185.225 104.916 184.925 103.949 184.325C102.999 183.725 102.241 182.883 101.674 181.8C101.124 180.7 100.849 179.442 100.849 178.025ZM111.749 178.075C111.749 177.225 111.583 176.5 111.249 175.9C110.916 175.283 110.466 174.817 109.899 174.5C109.333 174.167 108.724 174 108.074 174C107.424 174 106.824 174.158 106.274 174.475C105.724 174.792 105.274 175.258 104.924 175.875C104.591 176.475 104.424 177.192 104.424 178.025C104.424 178.858 104.591 179.592 104.924 180.225C105.274 180.842 105.724 181.317 106.274 181.65C106.841 181.983 107.441 182.15 108.074 182.15C108.724 182.15 109.333 181.992 109.899 181.675C110.466 181.342 110.916 180.875 111.249 180.275C111.583 179.658 111.749 178.925 111.749 178.075ZM122.193 173.3C122.643 172.567 123.226 171.992 123.943 171.575C124.676 171.158 125.509 170.95 126.443 170.95V174.625H125.518C124.418 174.625 123.584 174.883 123.018 175.4C122.468 175.917 122.193 176.817 122.193 178.1V185H118.693V171.15H122.193V173.3ZM137 185L132.3 179.1V185H128.8V166.5H132.3V177.025L136.95 171.15H141.5L135.4 178.1L141.55 185H137ZM155.507 185.225C154.174 185.225 152.974 184.933 151.907 184.35C150.84 183.75 149.999 182.908 149.382 181.825C148.782 180.742 148.482 179.492 148.482 178.075C148.482 176.658 148.79 175.408 149.407 174.325C150.04 173.242 150.899 172.408 151.982 171.825C153.065 171.225 154.274 170.925 155.607 170.925C156.94 170.925 158.149 171.225 159.232 171.825C160.315 172.408 161.165 173.242 161.782 174.325C162.415 175.408 162.732 176.658 162.732 178.075C162.732 179.492 162.407 180.742 161.757 181.825C161.124 182.908 160.257 183.75 159.157 184.35C158.074 184.933 156.857 185.225 155.507 185.225ZM155.507 182.175C156.14 182.175 156.732 182.025 157.282 181.725C157.849 181.408 158.299 180.942 158.632 180.325C158.965 179.708 159.132 178.958 159.132 178.075C159.132 176.758 158.782 175.75 158.082 175.05C157.399 174.333 156.557 173.975 155.557 173.975C154.557 173.975 153.715 174.333 153.032 175.05C152.365 175.75 152.032 176.758 152.032 178.075C152.032 179.392 152.357 180.408 153.007 181.125C153.674 181.825 154.507 182.175 155.507 182.175ZM172.974 170.95C174.624 170.95 175.958 171.475 176.974 172.525C177.991 173.558 178.499 175.008 178.499 176.875V185H174.999V177.35C174.999 176.25 174.724 175.408 174.174 174.825C173.624 174.225 172.874 173.925 171.924 173.925C170.958 173.925 170.191 174.225 169.624 174.825C169.074 175.408 168.799 176.25 168.799 177.35V185H165.299V171.15H168.799V172.875C169.266 172.275 169.858 171.808 170.574 171.475C171.308 171.125 172.108 170.95 172.974 170.95ZM191.86 174.025V180.725C191.86 181.192 191.968 181.533 192.185 181.75C192.418 181.95 192.801 182.05 193.335 182.05H194.96V185H192.76C189.81 185 188.335 183.567 188.335 180.7V174.025H186.685V171.15H188.335V167.725H191.86V171.15H194.96V174.025H191.86ZM205.277 170.95C206.327 170.95 207.26 171.183 208.077 171.65C208.894 172.1 209.527 172.775 209.977 173.675C210.444 174.558 210.677 175.625 210.677 176.875V185H207.177V177.35C207.177 176.25 206.902 175.408 206.352 174.825C205.802 174.225 205.052 173.925 204.102 173.925C203.135 173.925 202.369 174.225 201.802 174.825C201.252 175.408 200.977 176.25 200.977 177.35V185H197.477V166.5H200.977V172.875C201.427 172.275 202.027 171.808 202.777 171.475C203.527 171.125 204.36 170.95 205.277 170.95ZM226.88 177.775C226.88 178.275 226.847 178.725 226.78 179.125H216.655C216.739 180.125 217.089 180.908 217.705 181.475C218.322 182.042 219.08 182.325 219.98 182.325C221.28 182.325 222.205 181.767 222.755 180.65H226.53C226.13 181.983 225.364 183.083 224.23 183.95C223.097 184.8 221.705 185.225 220.055 185.225C218.722 185.225 217.522 184.933 216.455 184.35C215.405 183.75 214.58 182.908 213.98 181.825C213.397 180.742 213.105 179.492 213.105 178.075C213.105 176.642 213.397 175.383 213.98 174.3C214.564 173.217 215.38 172.383 216.43 171.8C217.48 171.217 218.689 170.925 220.055 170.925C221.372 170.925 222.547 171.208 223.58 171.775C224.63 172.342 225.439 173.15 226.005 174.2C226.589 175.233 226.88 176.425 226.88 177.775ZM223.255 176.775C223.239 175.875 222.914 175.158 222.28 174.625C221.647 174.075 220.872 173.8 219.955 173.8C219.089 173.8 218.355 174.067 217.755 174.6C217.172 175.117 216.814 175.842 216.68 176.775H223.255ZM57.025 223.225C55.8917 223.225 54.875 223.025 53.975 222.625C53.075 222.208 52.3583 221.65 51.825 220.95C51.3083 220.25 51.025 219.475 50.975 218.625H54.5C54.5667 219.158 54.825 219.6 55.275 219.95C55.7417 220.3 56.3167 220.475 57 220.475C57.6667 220.475 58.1833 220.342 58.55 220.075C58.9333 219.808 59.125 219.467 59.125 219.05C59.125 218.6 58.8917 218.267 58.425 218.05C57.975 217.817 57.25 217.567 56.25 217.3C55.2167 217.05 54.3667 216.792 53.7 216.525C53.05 216.258 52.4833 215.85 52 215.3C51.5333 214.75 51.3 214.008 51.3 213.075C51.3 212.308 51.5167 211.608 51.95 210.975C52.4 210.342 53.0333 209.842 53.85 209.475C54.6833 209.108 55.6583 208.925 56.775 208.925C58.425 208.925 59.7417 209.342 60.725 210.175C61.7083 210.992 62.25 212.1 62.35 213.5H59C58.95 212.95 58.7167 212.517 58.3 212.2C57.9 211.867 57.3583 211.7 56.675 211.7C56.0417 211.7 55.55 211.817 55.2 212.05C54.8667 212.283 54.7 212.608 54.7 213.025C54.7 213.492 54.9333 213.85 55.4 214.1C55.8667 214.333 56.5917 214.575 57.575 214.825C58.575 215.075 59.4 215.333 60.05 215.6C60.7 215.867 61.2583 216.283 61.725 216.85C62.2083 217.4 62.4583 218.133 62.475 219.05C62.475 219.85 62.25 220.567 61.8 221.2C61.3667 221.833 60.7333 222.333 59.9 222.7C59.0833 223.05 58.125 223.225 57.025 223.225ZM71.498 223.225C70.1647 223.225 68.9647 222.933 67.898 222.35C66.8314 221.75 65.9897 220.908 65.373 219.825C64.773 218.742 64.473 217.492 64.473 216.075C64.473 214.658 64.7814 213.408 65.398 212.325C66.0314 211.242 66.8897 210.408 67.973 209.825C69.0564 209.225 70.2647 208.925 71.598 208.925C72.9314 208.925 74.1397 209.225 75.223 209.825C76.3064 210.408 77.1564 211.242 77.773 212.325C78.4064 213.408 78.723 214.658 78.723 216.075C78.723 217.492 78.398 218.742 77.748 219.825C77.1147 220.908 76.248 221.75 75.148 222.35C74.0647 222.933 72.848 223.225 71.498 223.225ZM71.498 220.175C72.1314 220.175 72.723 220.025 73.273 219.725C73.8397 219.408 74.2897 218.942 74.623 218.325C74.9564 217.708 75.123 216.958 75.123 216.075C75.123 214.758 74.773 213.75 74.073 213.05C73.3897 212.333 72.548 211.975 71.548 211.975C70.548 211.975 69.7064 212.333 69.023 213.05C68.3564 213.75 68.023 214.758 68.023 216.075C68.023 217.392 68.348 218.408 68.998 219.125C69.6647 219.825 70.498 220.175 71.498 220.175ZM80.3904 216.075C80.3904 214.642 80.6821 213.392 81.2654 212.325C81.8488 211.242 82.6571 210.408 83.6904 209.825C84.7238 209.225 85.9071 208.925 87.2404 208.925C88.9571 208.925 90.3738 209.358 91.4904 210.225C92.6238 211.075 93.3821 212.275 93.7654 213.825H89.9904C89.7904 213.225 89.4488 212.758 88.9654 212.425C88.4988 212.075 87.9154 211.9 87.2154 211.9C86.2154 211.9 85.4238 212.267 84.8404 213C84.2571 213.717 83.9654 214.742 83.9654 216.075C83.9654 217.392 84.2571 218.417 84.8404 219.15C85.4238 219.867 86.2154 220.225 87.2154 220.225C88.6321 220.225 89.5571 219.592 89.9904 218.325H93.7654C93.3821 219.825 92.6238 221.017 91.4904 221.9C90.3571 222.783 88.9404 223.225 87.2404 223.225C85.9071 223.225 84.7238 222.933 83.6904 222.35C82.6571 221.75 81.8488 220.917 81.2654 219.85C80.6821 218.767 80.3904 217.508 80.3904 216.075ZM98.1045 207.5C97.4878 207.5 96.9712 207.308 96.5545 206.925C96.1545 206.525 95.9545 206.033 95.9545 205.45C95.9545 204.867 96.1545 204.383 96.5545 204C96.9712 203.6 97.4878 203.4 98.1045 203.4C98.7212 203.4 99.2295 203.6 99.6295 204C100.046 204.383 100.254 204.867 100.254 205.45C100.254 206.033 100.046 206.525 99.6295 206.925C99.2295 207.308 98.7212 207.5 98.1045 207.5ZM99.8295 209.15V223H96.3295V209.15H99.8295ZM116.163 215.775C116.163 216.275 116.129 216.725 116.063 217.125H105.938C106.021 218.125 106.371 218.908 106.988 219.475C107.604 220.042 108.363 220.325 109.263 220.325C110.563 220.325 111.488 219.767 112.038 218.65H115.813C115.413 219.983 114.646 221.083 113.513 221.95C112.379 222.8 110.988 223.225 109.338 223.225C108.004 223.225 106.804 222.933 105.738 222.35C104.688 221.75 103.863 220.908 103.263 219.825C102.679 218.742 102.387 217.492 102.387 216.075C102.387 214.642 102.679 213.383 103.263 212.3C103.846 211.217 104.663 210.383 105.713 209.8C106.763 209.217 107.971 208.925 109.338 208.925C110.654 208.925 111.829 209.208 112.863 209.775C113.913 210.342 114.721 211.15 115.288 212.2C115.871 213.233 116.163 214.425 116.163 215.775ZM112.538 214.775C112.521 213.875 112.196 213.158 111.563 212.625C110.929 212.075 110.154 211.8 109.238 211.8C108.371 211.8 107.638 212.067 107.038 212.6C106.454 213.117 106.096 213.842 105.963 214.775H112.538ZM122.792 212.025V218.725C122.792 219.192 122.901 219.533 123.117 219.75C123.351 219.95 123.734 220.05 124.267 220.05H125.892V223H123.692C120.742 223 119.267 221.567 119.267 218.7V212.025H117.617V209.15H119.267V205.725H122.792V209.15H125.892V212.025H122.792ZM141.66 209.15L133.085 229.55H129.36L132.36 222.65L126.81 209.15H130.735L134.31 218.825L137.935 209.15H141.66Z" fill="#FA5D48"/>
<defs>
<linearGradient id="paint0_linear" x1="246.5" y1="263" x2="322" y2="80" gradientUnits="userSpaceOnUse">
<stop stop-color="#2255FF"/>
<stop offset="0.526042" stop-color="#2255FF" stop-opacity="0.28125"/>
<stop offset="1" stop-color="#2D2D2D" stop-opacity="0"/>
</linearGradient>
</defs>
</svg>
