<svg width="373" height="287" viewBox="0 0 373 287" fill="none" xmlns="http://www.w3.org/2000/svg">
<path d="M6.812 192.571C10.7711 189.427 12.576 187.971 12.2267 188.204C23.6382 178.772 32.6044 171.028 39.1253 164.973C45.7627 158.918 51.352 152.572 55.8933 145.935C60.4347 139.297 62.7053 132.835 62.7053 126.547C62.7053 121.772 61.5991 118.046 59.3867 115.368C57.1742 112.69 53.8556 111.351 49.4307 111.351C45.0058 111.351 41.5124 113.039 38.9507 116.416C36.5053 119.676 35.2827 124.334 35.2827 130.389H6.46267C6.69556 120.492 8.79156 112.224 12.7507 105.587C16.8262 98.9493 22.1244 94.0587 28.6453 90.9147C35.2827 87.7707 42.6187 86.1987 50.6533 86.1987C64.5102 86.1987 74.932 89.7502 81.9187 96.8533C89.0218 103.956 92.5733 113.214 92.5733 124.625C92.5733 137.085 88.3231 148.671 79.8227 159.384C71.3222 169.98 60.4929 180.344 47.3347 190.475H94.4947V214.753H6.812V192.571Z" fill="#FA5D48" fill-opacity="0.22"/>
<path opacity="0.8" d="M158 0L22 248.5H210L342 0H158Z" fill="url(#paint0_linear)"/>
<path d="M156.252 103L152.402 96.2H150.752V103H147.252V85.55H153.802C155.152 85.55 156.302 85.7917 157.252 86.275C158.202 86.7417 158.911 87.3833 159.377 88.2C159.861 89 160.102 89.9 160.102 90.9C160.102 92.05 159.769 93.0917 159.102 94.025C158.436 94.9417 157.444 95.575 156.127 95.925L160.302 103H156.252ZM150.752 93.575H153.677C154.627 93.575 155.336 93.35 155.802 92.9C156.269 92.4333 156.502 91.7917 156.502 90.975C156.502 90.175 156.269 89.5583 155.802 89.125C155.336 88.675 154.627 88.45 153.677 88.45H150.752V93.575ZM176.143 95.775C176.143 96.275 176.11 96.725 176.043 97.125H165.918C166.001 98.125 166.351 98.9083 166.968 99.475C167.585 100.042 168.343 100.325 169.243 100.325C170.543 100.325 171.468 99.7667 172.018 98.65H175.793C175.393 99.9833 174.626 101.083 173.493 101.95C172.36 102.8 170.968 103.225 169.318 103.225C167.985 103.225 166.785 102.933 165.718 102.35C164.668 101.75 163.843 100.908 163.243 99.825C162.66 98.7417 162.368 97.4917 162.368 96.075C162.368 94.6417 162.66 93.3833 163.243 92.3C163.826 91.2167 164.643 90.3833 165.693 89.8C166.743 89.2167 167.951 88.925 169.318 88.925C170.635 88.925 171.81 89.2083 172.843 89.775C173.893 90.3417 174.701 91.15 175.268 92.2C175.851 93.2333 176.143 94.425 176.143 95.775ZM172.518 94.775C172.501 93.875 172.176 93.1583 171.543 92.625C170.91 92.075 170.135 91.8 169.218 91.8C168.351 91.8 167.618 92.0667 167.018 92.6C166.435 93.1167 166.076 93.8417 165.943 94.775H172.518ZM184.123 88.925C185.156 88.925 186.064 89.1333 186.848 89.55C187.631 89.95 188.248 90.475 188.698 91.125V89.15H192.223V103.1C192.223 104.383 191.964 105.525 191.448 106.525C190.931 107.542 190.156 108.342 189.123 108.925C188.089 109.525 186.839 109.825 185.373 109.825C183.406 109.825 181.789 109.367 180.523 108.45C179.273 107.533 178.564 106.283 178.398 104.7H181.873C182.056 105.333 182.448 105.833 183.048 106.2C183.664 106.583 184.406 106.775 185.273 106.775C186.289 106.775 187.114 106.467 187.748 105.85C188.381 105.25 188.698 104.333 188.698 103.1V100.95C188.248 101.6 187.623 102.142 186.823 102.575C186.039 103.008 185.139 103.225 184.123 103.225C182.956 103.225 181.889 102.925 180.923 102.325C179.956 101.725 179.189 100.883 178.623 99.8C178.073 98.7 177.798 97.4417 177.798 96.025C177.798 94.625 178.073 93.3833 178.623 92.3C179.189 91.2167 179.948 90.3833 180.898 89.8C181.864 89.2167 182.939 88.925 184.123 88.925ZM188.698 96.075C188.698 95.225 188.531 94.5 188.198 93.9C187.864 93.2833 187.414 92.8167 186.848 92.5C186.281 92.1667 185.673 92 185.023 92C184.373 92 183.773 92.1583 183.223 92.475C182.673 92.7917 182.223 93.2583 181.873 93.875C181.539 94.475 181.373 95.1917 181.373 96.025C181.373 96.8583 181.539 97.5917 181.873 98.225C182.223 98.8417 182.673 99.3167 183.223 99.65C183.789 99.9833 184.389 100.15 185.023 100.15C185.673 100.15 186.281 99.9917 186.848 99.675C187.414 99.3417 187.864 98.875 188.198 98.275C188.531 97.6583 188.698 96.925 188.698 96.075ZM197.416 87.5C196.799 87.5 196.283 87.3083 195.866 86.925C195.466 86.525 195.266 86.0333 195.266 85.45C195.266 84.8667 195.466 84.3833 195.866 84C196.283 83.6 196.799 83.4 197.416 83.4C198.033 83.4 198.541 83.6 198.941 84C199.358 84.3833 199.566 84.8667 199.566 85.45C199.566 86.0333 199.358 86.525 198.941 86.925C198.541 87.3083 198.033 87.5 197.416 87.5ZM199.141 89.15V103H195.641V89.15H199.141ZM207.899 103.225C206.766 103.225 205.749 103.025 204.849 102.625C203.949 102.208 203.232 101.65 202.699 100.95C202.182 100.25 201.899 99.475 201.849 98.625H205.374C205.441 99.1583 205.699 99.6 206.149 99.95C206.616 100.3 207.191 100.475 207.874 100.475C208.541 100.475 209.057 100.342 209.424 100.075C209.807 99.8083 209.999 99.4667 209.999 99.05C209.999 98.6 209.766 98.2667 209.299 98.05C208.849 97.8167 208.124 97.5667 207.124 97.3C206.091 97.05 205.241 96.7917 204.574 96.525C203.924 96.2583 203.357 95.85 202.874 95.3C202.407 94.75 202.174 94.0083 202.174 93.075C202.174 92.3083 202.391 91.6083 202.824 90.975C203.274 90.3417 203.907 89.8417 204.724 89.475C205.557 89.1083 206.532 88.925 207.649 88.925C209.299 88.925 210.616 89.3417 211.599 90.175C212.582 90.9917 213.124 92.1 213.224 93.5H209.874C209.824 92.95 209.591 92.5167 209.174 92.2C208.774 91.8667 208.232 91.7 207.549 91.7C206.916 91.7 206.424 91.8167 206.074 92.05C205.741 92.2833 205.574 92.6083 205.574 93.025C205.574 93.4917 205.807 93.85 206.274 94.1C206.741 94.3333 207.466 94.575 208.449 94.825C209.449 95.075 210.274 95.3333 210.924 95.6C211.574 95.8667 212.132 96.2833 212.599 96.85C213.082 97.4 213.332 98.1333 213.349 99.05C213.349 99.85 213.124 100.567 212.674 101.2C212.241 101.833 211.607 102.333 210.774 102.7C209.957 103.05 208.999 103.225 207.899 103.225ZM220.297 92.025V98.725C220.297 99.1917 220.405 99.5333 220.622 99.75C220.855 99.95 221.239 100.05 221.772 100.05H223.397V103H221.197C218.247 103 216.772 101.567 216.772 98.7V92.025H215.122V89.15H216.772V85.725H220.297V89.15H223.397V92.025H220.297ZM238.789 95.775C238.789 96.275 238.756 96.725 238.689 97.125H228.564C228.648 98.125 228.998 98.9083 229.614 99.475C230.231 100.042 230.989 100.325 231.889 100.325C233.189 100.325 234.114 99.7667 234.664 98.65H238.439C238.039 99.9833 237.273 101.083 236.139 101.95C235.006 102.8 233.614 103.225 231.964 103.225C230.631 103.225 229.431 102.933 228.364 102.35C227.314 101.75 226.489 100.908 225.889 99.825C225.306 98.7417 225.014 97.4917 225.014 96.075C225.014 94.6417 225.306 93.3833 225.889 92.3C226.473 91.2167 227.289 90.3833 228.339 89.8C229.389 89.2167 230.598 88.925 231.964 88.925C233.281 88.925 234.456 89.2083 235.489 89.775C236.539 90.3417 237.348 91.15 237.914 92.2C238.498 93.2333 238.789 94.425 238.789 95.775ZM235.164 94.775C235.148 93.875 234.823 93.1583 234.189 92.625C233.556 92.075 232.781 91.8 231.864 91.8C230.998 91.8 230.264 92.0667 229.664 92.6C229.081 93.1167 228.723 93.8417 228.589 94.775H235.164ZM244.844 91.3C245.294 90.5667 245.877 89.9917 246.594 89.575C247.327 89.1583 248.161 88.95 249.094 88.95V92.625H248.169C247.069 92.625 246.236 92.8833 245.669 93.4C245.119 93.9167 244.844 94.8167 244.844 96.1V103H241.344V89.15H244.844V91.3ZM261.484 92.025V98.725C261.484 99.1917 261.592 99.5333 261.809 99.75C262.042 99.95 262.425 100.05 262.959 100.05H264.584V103H262.384C259.434 103 257.959 101.567 257.959 98.7V92.025H256.309V89.15H257.959V85.725H261.484V89.15H264.584V92.025H261.484ZM273.251 103.225C271.918 103.225 270.718 102.933 269.651 102.35C268.584 101.75 267.743 100.908 267.126 99.825C266.526 98.7417 266.226 97.4917 266.226 96.075C266.226 94.6583 266.534 93.4083 267.151 92.325C267.784 91.2417 268.643 90.4083 269.726 89.825C270.809 89.225 272.018 88.925 273.351 88.925C274.684 88.925 275.893 89.225 276.976 89.825C278.059 90.4083 278.909 91.2417 279.526 92.325C280.159 93.4083 280.476 94.6583 280.476 96.075C280.476 97.4917 280.151 98.7417 279.501 99.825C278.868 100.908 278.001 101.75 276.901 102.35C275.818 102.933 274.601 103.225 273.251 103.225ZM273.251 100.175C273.884 100.175 274.476 100.025 275.026 99.725C275.593 99.4083 276.043 98.9417 276.376 98.325C276.709 97.7083 276.876 96.9583 276.876 96.075C276.876 94.7583 276.526 93.75 275.826 93.05C275.143 92.3333 274.301 91.975 273.301 91.975C272.301 91.975 271.459 92.3333 270.776 93.05C270.109 93.75 269.776 94.7583 269.776 96.075C269.776 97.3917 270.101 98.4083 270.751 99.125C271.418 99.825 272.251 100.175 273.251 100.175ZM123.242 137.775L126.742 127.15H130.467L125.342 141H121.092L115.992 127.15H119.742L123.242 137.775ZM138.583 141.225C137.25 141.225 136.05 140.933 134.983 140.35C133.916 139.75 133.075 138.908 132.458 137.825C131.858 136.742 131.558 135.492 131.558 134.075C131.558 132.658 131.866 131.408 132.483 130.325C133.116 129.242 133.975 128.408 135.058 127.825C136.141 127.225 137.35 126.925 138.683 126.925C140.016 126.925 141.225 127.225 142.308 127.825C143.391 128.408 144.241 129.242 144.858 130.325C145.491 131.408 145.808 132.658 145.808 134.075C145.808 135.492 145.483 136.742 144.833 137.825C144.2 138.908 143.333 139.75 142.233 140.35C141.15 140.933 139.933 141.225 138.583 141.225ZM138.583 138.175C139.216 138.175 139.808 138.025 140.358 137.725C140.925 137.408 141.375 136.942 141.708 136.325C142.041 135.708 142.208 134.958 142.208 134.075C142.208 132.758 141.858 131.75 141.158 131.05C140.475 130.333 139.633 129.975 138.633 129.975C137.633 129.975 136.791 130.333 136.108 131.05C135.441 131.75 135.108 132.758 135.108 134.075C135.108 135.392 135.433 136.408 136.083 137.125C136.75 137.825 137.583 138.175 138.583 138.175ZM151.875 122.5V141H148.375V122.5H151.875ZM168.408 127.15V141H164.883V139.25C164.433 139.85 163.842 140.325 163.108 140.675C162.392 141.008 161.608 141.175 160.758 141.175C159.675 141.175 158.717 140.95 157.883 140.5C157.05 140.033 156.392 139.358 155.908 138.475C155.442 137.575 155.208 136.508 155.208 135.275V127.15H158.708V134.775C158.708 135.875 158.983 136.725 159.533 137.325C160.083 137.908 160.833 138.2 161.783 138.2C162.75 138.2 163.508 137.908 164.058 137.325C164.608 136.725 164.883 135.875 164.883 134.775V127.15H168.408ZM179.537 126.95C181.187 126.95 182.52 127.475 183.537 128.525C184.553 129.558 185.062 131.008 185.062 132.875V141H181.562V133.35C181.562 132.25 181.287 131.408 180.737 130.825C180.187 130.225 179.437 129.925 178.487 129.925C177.52 129.925 176.753 130.225 176.187 130.825C175.637 131.408 175.362 132.25 175.362 133.35V141H171.862V127.15H175.362V128.875C175.828 128.275 176.42 127.808 177.137 127.475C177.87 127.125 178.67 126.95 179.537 126.95ZM192.465 130.025V136.725C192.465 137.192 192.573 137.533 192.79 137.75C193.023 137.95 193.407 138.05 193.94 138.05H195.565V141H193.365C190.415 141 188.94 139.567 188.94 136.7V130.025H187.29V127.15H188.94V123.725H192.465V127.15H195.565V130.025H192.465ZM210.957 133.775C210.957 134.275 210.924 134.725 210.857 135.125H200.732C200.816 136.125 201.166 136.908 201.782 137.475C202.399 138.042 203.157 138.325 204.057 138.325C205.357 138.325 206.282 137.767 206.832 136.65H210.607C210.207 137.983 209.441 139.083 208.307 139.95C207.174 140.8 205.782 141.225 204.132 141.225C202.799 141.225 201.599 140.933 200.532 140.35C199.482 139.75 198.657 138.908 198.057 137.825C197.474 136.742 197.182 135.492 197.182 134.075C197.182 132.642 197.474 131.383 198.057 130.3C198.641 129.217 199.457 128.383 200.507 127.8C201.557 127.217 202.766 126.925 204.132 126.925C205.449 126.925 206.624 127.208 207.657 127.775C208.707 128.342 209.516 129.15 210.082 130.2C210.666 131.233 210.957 132.425 210.957 133.775ZM207.332 132.775C207.316 131.875 206.991 131.158 206.357 130.625C205.724 130.075 204.949 129.8 204.032 129.8C203.166 129.8 202.432 130.067 201.832 130.6C201.249 131.117 200.891 131.842 200.757 132.775H207.332ZM226.387 133.775C226.387 134.275 226.354 134.725 226.287 135.125H216.162C216.245 136.125 216.595 136.908 217.212 137.475C217.829 138.042 218.587 138.325 219.487 138.325C220.787 138.325 221.712 137.767 222.262 136.65H226.037C225.637 137.983 224.87 139.083 223.737 139.95C222.604 140.8 221.212 141.225 219.562 141.225C218.229 141.225 217.029 140.933 215.962 140.35C214.912 139.75 214.087 138.908 213.487 137.825C212.904 136.742 212.612 135.492 212.612 134.075C212.612 132.642 212.904 131.383 213.487 130.3C214.07 129.217 214.887 128.383 215.937 127.8C216.987 127.217 218.195 126.925 219.562 126.925C220.879 126.925 222.054 127.208 223.087 127.775C224.137 128.342 224.945 129.15 225.512 130.2C226.095 131.233 226.387 132.425 226.387 133.775ZM222.762 132.775C222.745 131.875 222.42 131.158 221.787 130.625C221.154 130.075 220.379 129.8 219.462 129.8C218.595 129.8 217.862 130.067 217.262 130.6C216.679 131.117 216.32 131.842 216.187 132.775H222.762ZM232.442 129.3C232.892 128.567 233.475 127.992 234.192 127.575C234.925 127.158 235.758 126.95 236.692 126.95V130.625H235.767C234.667 130.625 233.833 130.883 233.267 131.4C232.717 131.917 232.442 132.817 232.442 134.1V141H228.942V127.15H232.442V129.3ZM251.356 130.025H248.931V141H245.381V130.025H243.806V127.15H245.381V126.45C245.381 124.75 245.865 123.5 246.831 122.7C247.798 121.9 249.256 121.525 251.206 121.575V124.525C250.356 124.508 249.765 124.65 249.431 124.95C249.098 125.25 248.931 125.792 248.931 126.575V127.15H251.356V130.025ZM259.774 141.225C258.441 141.225 257.241 140.933 256.174 140.35C255.108 139.75 254.266 138.908 253.649 137.825C253.049 136.742 252.749 135.492 252.749 134.075C252.749 132.658 253.058 131.408 253.674 130.325C254.308 129.242 255.166 128.408 256.249 127.825C257.333 127.225 258.541 126.925 259.874 126.925C261.208 126.925 262.416 127.225 263.499 127.825C264.583 128.408 265.433 129.242 266.049 130.325C266.683 131.408 266.999 132.658 266.999 134.075C266.999 135.492 266.674 136.742 266.024 137.825C265.391 138.908 264.524 139.75 263.424 140.35C262.341 140.933 261.124 141.225 259.774 141.225ZM259.774 138.175C260.408 138.175 260.999 138.025 261.549 137.725C262.116 137.408 262.566 136.942 262.899 136.325C263.233 135.708 263.399 134.958 263.399 134.075C263.399 132.758 263.049 131.75 262.349 131.05C261.666 130.333 260.824 129.975 259.824 129.975C258.824 129.975 257.983 130.333 257.299 131.05C256.633 131.75 256.299 132.758 256.299 134.075C256.299 135.392 256.624 136.408 257.274 137.125C257.941 137.825 258.774 138.175 259.774 138.175ZM273.067 129.3C273.517 128.567 274.1 127.992 274.817 127.575C275.55 127.158 276.383 126.95 277.317 126.95V130.625H276.392C275.292 130.625 274.458 130.883 273.892 131.4C273.342 131.917 273.067 132.817 273.067 134.1V141H269.567V127.15H273.067V129.3ZM284.731 134.025C284.731 132.625 285.006 131.383 285.556 130.3C286.123 129.217 286.881 128.383 287.831 127.8C288.798 127.217 289.873 126.925 291.056 126.925C292.09 126.925 292.99 127.133 293.756 127.55C294.54 127.967 295.165 128.492 295.631 129.125V127.15H299.156V141H295.631V138.975C295.181 139.625 294.556 140.167 293.756 140.6C292.973 141.017 292.065 141.225 291.031 141.225C289.865 141.225 288.798 140.925 287.831 140.325C286.881 139.725 286.123 138.883 285.556 137.8C285.006 136.7 284.731 135.442 284.731 134.025ZM295.631 134.075C295.631 133.225 295.465 132.5 295.131 131.9C294.798 131.283 294.348 130.817 293.781 130.5C293.215 130.167 292.606 130 291.956 130C291.306 130 290.706 130.158 290.156 130.475C289.606 130.792 289.156 131.258 288.806 131.875C288.473 132.475 288.306 133.192 288.306 134.025C288.306 134.858 288.473 135.592 288.806 136.225C289.156 136.842 289.606 137.317 290.156 137.65C290.723 137.983 291.323 138.15 291.956 138.15C292.606 138.15 293.215 137.992 293.781 137.675C294.348 137.342 294.798 136.875 295.131 136.275C295.465 135.658 295.631 134.925 295.631 134.075ZM118.796 165.15L114.746 179H110.971L108.446 169.325L105.921 179H102.121L98.0461 165.15H101.596L104.046 175.7L106.696 165.15H110.396L112.996 175.675L115.446 165.15H118.796ZM133.565 171.775C133.565 172.275 133.532 172.725 133.465 173.125H123.34C123.423 174.125 123.773 174.908 124.39 175.475C125.007 176.042 125.765 176.325 126.665 176.325C127.965 176.325 128.89 175.767 129.44 174.65H133.215C132.815 175.983 132.048 177.083 130.915 177.95C129.782 178.8 128.39 179.225 126.74 179.225C125.407 179.225 124.207 178.933 123.14 178.35C122.09 177.75 121.265 176.908 120.665 175.825C120.082 174.742 119.79 173.492 119.79 172.075C119.79 170.642 120.082 169.383 120.665 168.3C121.248 167.217 122.065 166.383 123.115 165.8C124.165 165.217 125.373 164.925 126.74 164.925C128.057 164.925 129.232 165.208 130.265 165.775C131.315 166.342 132.123 167.15 132.69 168.2C133.273 169.233 133.565 170.425 133.565 171.775ZM129.94 170.775C129.923 169.875 129.598 169.158 128.965 168.625C128.332 168.075 127.557 167.8 126.64 167.8C125.773 167.8 125.04 168.067 124.44 168.6C123.857 169.117 123.498 169.842 123.365 170.775H129.94ZM148.995 171.775C148.995 172.275 148.961 172.725 148.895 173.125H138.77C138.853 174.125 139.203 174.908 139.82 175.475C140.436 176.042 141.195 176.325 142.095 176.325C143.395 176.325 144.32 175.767 144.87 174.65H148.645C148.245 175.983 147.478 177.083 146.345 177.95C145.211 178.8 143.82 179.225 142.17 179.225C140.836 179.225 139.636 178.933 138.57 178.35C137.52 177.75 136.695 176.908 136.095 175.825C135.511 174.742 135.22 173.492 135.22 172.075C135.22 170.642 135.511 169.383 136.095 168.3C136.678 167.217 137.495 166.383 138.545 165.8C139.595 165.217 140.803 164.925 142.17 164.925C143.486 164.925 144.661 165.208 145.695 165.775C146.745 166.342 147.553 167.15 148.12 168.2C148.703 169.233 148.995 170.425 148.995 171.775ZM145.37 170.775C145.353 169.875 145.028 169.158 144.395 168.625C143.761 168.075 142.986 167.8 142.07 167.8C141.203 167.8 140.47 168.067 139.87 168.6C139.286 169.117 138.928 169.842 138.795 170.775H145.37ZM159.749 179L155.049 173.1V179H151.549V160.5H155.049V171.025L159.699 165.15H164.249L158.149 172.1L164.299 179H159.749ZM181.481 155.325L174.731 183.525H171.306L178.056 155.325H181.481ZM207.421 164.95C209.121 164.95 210.488 165.475 211.521 166.525C212.571 167.558 213.096 169.008 213.096 170.875V179H209.596V171.35C209.596 170.267 209.321 169.442 208.771 168.875C208.221 168.292 207.471 168 206.521 168C205.571 168 204.813 168.292 204.246 168.875C203.696 169.442 203.421 170.267 203.421 171.35V179H199.921V171.35C199.921 170.267 199.646 169.442 199.096 168.875C198.546 168.292 197.796 168 196.846 168C195.879 168 195.113 168.292 194.546 168.875C193.996 169.442 193.721 170.267 193.721 171.35V179H190.221V165.15H193.721V166.825C194.171 166.242 194.746 165.783 195.446 165.45C196.163 165.117 196.946 164.95 197.796 164.95C198.879 164.95 199.846 165.183 200.696 165.65C201.546 166.1 202.204 166.75 202.671 167.6C203.121 166.8 203.771 166.158 204.621 165.675C205.488 165.192 206.421 164.95 207.421 164.95ZM222.567 179.225C221.234 179.225 220.034 178.933 218.967 178.35C217.901 177.75 217.059 176.908 216.442 175.825C215.842 174.742 215.542 173.492 215.542 172.075C215.542 170.658 215.851 169.408 216.467 168.325C217.101 167.242 217.959 166.408 219.042 165.825C220.126 165.225 221.334 164.925 222.667 164.925C224.001 164.925 225.209 165.225 226.292 165.825C227.376 166.408 228.226 167.242 228.842 168.325C229.476 169.408 229.792 170.658 229.792 172.075C229.792 173.492 229.467 174.742 228.817 175.825C228.184 176.908 227.317 177.75 226.217 178.35C225.134 178.933 223.917 179.225 222.567 179.225ZM222.567 176.175C223.201 176.175 223.792 176.025 224.342 175.725C224.909 175.408 225.359 174.942 225.692 174.325C226.026 173.708 226.192 172.958 226.192 172.075C226.192 170.758 225.842 169.75 225.142 169.05C224.459 168.333 223.617 167.975 222.617 167.975C221.617 167.975 220.776 168.333 220.092 169.05C219.426 169.75 219.092 170.758 219.092 172.075C219.092 173.392 219.417 174.408 220.067 175.125C220.734 175.825 221.567 176.175 222.567 176.175ZM240.035 164.95C241.685 164.95 243.018 165.475 244.035 166.525C245.051 167.558 245.56 169.008 245.56 170.875V179H242.06V171.35C242.06 170.25 241.785 169.408 241.235 168.825C240.685 168.225 239.935 167.925 238.985 167.925C238.018 167.925 237.251 168.225 236.685 168.825C236.135 169.408 235.86 170.25 235.86 171.35V179H232.36V165.15H235.86V166.875C236.326 166.275 236.918 165.808 237.635 165.475C238.368 165.125 239.168 164.95 240.035 164.95ZM252.963 168.025V174.725C252.963 175.192 253.071 175.533 253.288 175.75C253.521 175.95 253.905 176.05 254.438 176.05H256.063V179H253.863C250.913 179 249.438 177.567 249.438 174.7V168.025H247.788V165.15H249.438V161.725H252.963V165.15H256.063V168.025H252.963ZM266.38 164.95C267.43 164.95 268.364 165.183 269.18 165.65C269.997 166.1 270.63 166.775 271.08 167.675C271.547 168.558 271.78 169.625 271.78 170.875V179H268.28V171.35C268.28 170.25 268.005 169.408 267.455 168.825C266.905 168.225 266.155 167.925 265.205 167.925C264.239 167.925 263.472 168.225 262.905 168.825C262.355 169.408 262.08 170.25 262.08 171.35V179H258.58V160.5H262.08V166.875C262.53 166.275 263.13 165.808 263.88 165.475C264.63 165.125 265.464 164.95 266.38 164.95ZM290.441 155.325L283.691 183.525H280.266L287.016 155.325H290.441ZM85.225 198.5V217H81.725V198.5H85.225ZM94.833 217.225C93.4997 217.225 92.2997 216.933 91.233 216.35C90.1663 215.75 89.3247 214.908 88.708 213.825C88.108 212.742 87.808 211.492 87.808 210.075C87.808 208.658 88.1163 207.408 88.733 206.325C89.3663 205.242 90.2247 204.408 91.308 203.825C92.3913 203.225 93.5997 202.925 94.933 202.925C96.2663 202.925 97.4747 203.225 98.558 203.825C99.6413 204.408 100.491 205.242 101.108 206.325C101.741 207.408 102.058 208.658 102.058 210.075C102.058 211.492 101.733 212.742 101.083 213.825C100.45 214.908 99.583 215.75 98.483 216.35C97.3997 216.933 96.183 217.225 94.833 217.225ZM94.833 214.175C95.4663 214.175 96.058 214.025 96.608 213.725C97.1747 213.408 97.6247 212.942 97.958 212.325C98.2913 211.708 98.458 210.958 98.458 210.075C98.458 208.758 98.108 207.75 97.408 207.05C96.7247 206.333 95.883 205.975 94.883 205.975C93.883 205.975 93.0413 206.333 92.358 207.05C91.6913 207.75 91.358 208.758 91.358 210.075C91.358 211.392 91.683 212.408 92.333 213.125C92.9997 213.825 93.833 214.175 94.833 214.175ZM112.3 202.95C113.95 202.95 115.284 203.475 116.3 204.525C117.317 205.558 117.825 207.008 117.825 208.875V217H114.325V209.35C114.325 208.25 114.05 207.408 113.5 206.825C112.95 206.225 112.2 205.925 111.25 205.925C110.284 205.925 109.517 206.225 108.95 206.825C108.4 207.408 108.125 208.25 108.125 209.35V217H104.625V203.15H108.125V204.875C108.592 204.275 109.184 203.808 109.9 203.475C110.634 203.125 111.434 202.95 112.3 202.95ZM126.579 202.925C127.612 202.925 128.52 203.133 129.304 203.55C130.087 203.95 130.704 204.475 131.154 205.125V203.15H134.679V217.1C134.679 218.383 134.42 219.525 133.904 220.525C133.387 221.542 132.612 222.342 131.579 222.925C130.545 223.525 129.295 223.825 127.829 223.825C125.862 223.825 124.245 223.367 122.979 222.45C121.729 221.533 121.02 220.283 120.854 218.7H124.329C124.512 219.333 124.904 219.833 125.504 220.2C126.12 220.583 126.862 220.775 127.729 220.775C128.745 220.775 129.57 220.467 130.204 219.85C130.837 219.25 131.154 218.333 131.154 217.1V214.95C130.704 215.6 130.079 216.142 129.279 216.575C128.495 217.008 127.595 217.225 126.579 217.225C125.412 217.225 124.345 216.925 123.379 216.325C122.412 215.725 121.645 214.883 121.079 213.8C120.529 212.7 120.254 211.442 120.254 210.025C120.254 208.625 120.529 207.383 121.079 206.3C121.645 205.217 122.404 204.383 123.354 203.8C124.32 203.217 125.395 202.925 126.579 202.925ZM131.154 210.075C131.154 209.225 130.987 208.5 130.654 207.9C130.32 207.283 129.87 206.817 129.304 206.5C128.737 206.167 128.129 206 127.479 206C126.829 206 126.229 206.158 125.679 206.475C125.129 206.792 124.679 207.258 124.329 207.875C123.995 208.475 123.829 209.192 123.829 210.025C123.829 210.858 123.995 211.592 124.329 212.225C124.679 212.842 125.129 213.317 125.679 213.65C126.245 213.983 126.845 214.15 127.479 214.15C128.129 214.15 128.737 213.992 129.304 213.675C129.87 213.342 130.32 212.875 130.654 212.275C130.987 211.658 131.154 210.925 131.154 210.075ZM150.972 209.775C150.972 210.275 150.939 210.725 150.872 211.125H140.747C140.83 212.125 141.18 212.908 141.797 213.475C142.414 214.042 143.172 214.325 144.072 214.325C145.372 214.325 146.297 213.767 146.847 212.65H150.622C150.222 213.983 149.455 215.083 148.322 215.95C147.189 216.8 145.797 217.225 144.147 217.225C142.814 217.225 141.614 216.933 140.547 216.35C139.497 215.75 138.672 214.908 138.072 213.825C137.489 212.742 137.197 211.492 137.197 210.075C137.197 208.642 137.489 207.383 138.072 206.3C138.655 205.217 139.472 204.383 140.522 203.8C141.572 203.217 142.78 202.925 144.147 202.925C145.464 202.925 146.639 203.208 147.672 203.775C148.722 204.342 149.53 205.15 150.097 206.2C150.68 207.233 150.972 208.425 150.972 209.775ZM147.347 208.775C147.33 207.875 147.005 207.158 146.372 206.625C145.739 206.075 144.964 205.8 144.047 205.8C143.18 205.8 142.447 206.067 141.847 206.6C141.264 207.117 140.905 207.842 140.772 208.775H147.347ZM157.027 205.3C157.477 204.567 158.06 203.992 158.777 203.575C159.51 203.158 160.343 202.95 161.277 202.95V206.625H160.352C159.252 206.625 158.418 206.883 157.852 207.4C157.302 207.917 157.027 208.817 157.027 210.1V217H153.527V203.15H157.027V205.3ZM173.666 206.025V212.725C173.666 213.192 173.775 213.533 173.991 213.75C174.225 213.95 174.608 214.05 175.141 214.05H176.766V217H174.566C171.616 217 170.141 215.567 170.141 212.7V206.025H168.491V203.15H170.141V199.725H173.666V203.15H176.766V206.025H173.666ZM192.159 209.775C192.159 210.275 192.125 210.725 192.059 211.125H181.934C182.017 212.125 182.367 212.908 182.984 213.475C183.6 214.042 184.359 214.325 185.259 214.325C186.559 214.325 187.484 213.767 188.034 212.65H191.809C191.409 213.983 190.642 215.083 189.509 215.95C188.375 216.8 186.984 217.225 185.334 217.225C184 217.225 182.8 216.933 181.734 216.35C180.684 215.75 179.859 214.908 179.259 213.825C178.675 212.742 178.384 211.492 178.384 210.075C178.384 208.642 178.675 207.383 179.259 206.3C179.842 205.217 180.659 204.383 181.709 203.8C182.759 203.217 183.967 202.925 185.334 202.925C186.65 202.925 187.825 203.208 188.859 203.775C189.909 204.342 190.717 205.15 191.284 206.2C191.867 207.233 192.159 208.425 192.159 209.775ZM188.534 208.775C188.517 207.875 188.192 207.158 187.559 206.625C186.925 206.075 186.15 205.8 185.234 205.8C184.367 205.8 183.634 206.067 183.034 206.6C182.45 207.117 182.092 207.842 181.959 208.775H188.534ZM198.213 205.3C198.663 204.567 199.247 203.992 199.963 203.575C200.697 203.158 201.53 202.95 202.463 202.95V206.625H201.538C200.438 206.625 199.605 206.883 199.038 207.4C198.488 207.917 198.213 208.817 198.213 210.1V217H194.713V203.15H198.213V205.3ZM222.021 202.95C223.721 202.95 225.087 203.475 226.121 204.525C227.171 205.558 227.696 207.008 227.696 208.875V217H224.196V209.35C224.196 208.267 223.921 207.442 223.371 206.875C222.821 206.292 222.071 206 221.121 206C220.171 206 219.412 206.292 218.846 206.875C218.296 207.442 218.021 208.267 218.021 209.35V217H214.521V209.35C214.521 208.267 214.246 207.442 213.696 206.875C213.146 206.292 212.396 206 211.446 206C210.479 206 209.712 206.292 209.146 206.875C208.596 207.442 208.321 208.267 208.321 209.35V217H204.821V203.15H208.321V204.825C208.771 204.242 209.346 203.783 210.046 203.45C210.762 203.117 211.546 202.95 212.396 202.95C213.479 202.95 214.446 203.183 215.296 203.65C216.146 204.1 216.804 204.75 217.271 205.6C217.721 204.8 218.371 204.158 219.221 203.675C220.087 203.192 221.021 202.95 222.021 202.95Z" fill="#FA5D48"/>
<defs>
<linearGradient id="paint0_linear" x1="266.5" y1="263" x2="342" y2="80" gradientUnits="userSpaceOnUse">
<stop stop-color="#2255FF"/>
<stop offset="0.526042" stop-color="#2255FF" stop-opacity="0.28125"/>
<stop offset="1" stop-color="#2D2D2D" stop-opacity="0"/>
</linearGradient>
</defs>
</svg>
