<svg width="211" height="23" viewBox="0 0 211 23" fill="none" xmlns="http://www.w3.org/2000/svg">
<path d="M0.244141 0.910156L5.2002 18H6.34766L7.6416 14.1426L3.75977 0.910156H0.244141ZM6.51855 5.45117L8.12988 10.9199H8.37402C8.48796 10.5456 8.65885 9.98405 8.88672 9.23535C9.19596 8.17741 9.43197 7.38802 9.59473 6.86719L12.8174 18H13.9648L15.2344 14.1426L11.377 0.910156H7.86133L6.51855 5.45117ZM14.2334 5.45117L15.8447 10.9199H16.0889L19.0918 0.910156H15.5762L14.2334 5.45117ZM20.3613 18.1953V0.519531H23.4131V4.66992C23.7386 4.55599 24.1781 4.49902 24.7314 4.49902V7.50195C24.1618 7.50195 23.7467 7.76237 23.4863 8.2832C23.4538 8.34831 23.4375 8.39714 23.4375 8.42969V18.1953H20.3613ZM25.9277 7.50195V4.49902C27.5065 4.49902 28.6947 5.06055 29.4922 6.18359C29.9316 6.78581 30.1514 7.45312 30.1514 8.18555V18.1953H27.0996V8.42969C27.0996 8.20182 26.9694 7.9821 26.709 7.77051C26.4974 7.59147 26.237 7.50195 25.9277 7.50195ZM31.4941 14.7773C31.4941 15.7214 31.9417 16.5189 32.8369 17.1699C33.6019 17.7233 34.5296 18 35.6201 18V14.9971C34.79 14.9971 34.3262 14.8018 34.2285 14.4111C34.2122 14.3135 34.2041 14.2158 34.2041 14.1182V13.7764C34.2204 13.4997 34.3262 13.3125 34.5215 13.2148C34.6029 13.166 34.904 13.0765 35.4248 12.9463C36.6943 12.5882 37.5488 12.279 37.9883 12.0186V14.0205C37.9883 14.5088 37.7604 14.818 37.3047 14.9482C37.1908 14.9808 37.0687 14.9971 36.9385 14.9971V18C37.9476 17.9837 38.7695 17.7233 39.4043 17.2188C40.0065 17.7396 40.804 18 41.7969 18V14.9727C41.3574 14.9401 41.1296 14.6797 41.1133 14.1914V7.81934C41.1133 6.92415 40.7389 6.09408 39.9902 5.3291C39.1602 4.49902 38.1348 4.08398 36.9141 4.08398V7.08691C37.6139 7.13574 37.972 7.45312 37.9883 8.03906V8.60059C37.9883 9.05632 37.1175 9.57715 35.376 10.1631C33.8786 10.6839 33.0241 11.0013 32.8125 11.1152C31.9499 11.6849 31.5104 12.4906 31.4941 13.5322V14.7773ZM31.665 7.5752L34.4971 8.64941C34.5133 7.62402 34.8958 7.10319 35.6445 7.08691V4.08398C34.5215 4.08398 33.5368 4.49089 32.6904 5.30469C32.0231 5.98828 31.6813 6.74512 31.665 7.5752ZM42.749 7.2334V4.08398H44.458V0.519531H47.7295V4.08398H49.3408V7.25781H47.7295V13.7275C47.762 14.3135 48.0632 14.6146 48.6328 14.6309H49.3408L50.0732 18H48.6084C46.4762 18 45.1742 17.1943 44.7021 15.583C44.5394 14.9971 44.458 14.2972 44.458 13.4834V7.2334H42.749ZM57.1533 2.10645C57.1533 1.43913 57.4544 0.93457 58.0566 0.592773C58.3333 0.430013 58.6263 0.348633 58.9355 0.348633C59.6191 0.348633 60.1318 0.64974 60.4736 1.25195C60.6201 1.52865 60.6934 1.81348 60.6934 2.10645C60.6934 2.79004 60.3923 3.30273 59.79 3.64453C59.5133 3.79102 59.2285 3.86426 58.9355 3.86426C58.2357 3.86426 57.7148 3.55501 57.373 2.93652C57.2266 2.67611 57.1533 2.39941 57.1533 2.10645ZM57.3242 18V4.81641H60.5957V18H57.3242ZM62.4023 14.3379L65.4297 13.7764C65.4297 14.3135 65.7064 14.696 66.2598 14.9238C66.4551 14.9889 66.6341 15.0296 66.7969 15.0459V18.1221C64.9089 18.1221 63.5986 17.4548 62.8662 16.1201C62.557 15.5667 62.4023 14.9727 62.4023 14.3379ZM62.5488 7.89258C62.5488 6.37891 63.2568 5.25586 64.6729 4.52344C65.3727 4.14909 66.0645 3.96191 66.748 3.96191V6.98926C65.9505 7.00553 65.5518 7.30664 65.5518 7.89258C65.5518 8.51107 66.3005 9.05632 67.7979 9.52832C68.3512 9.70736 69.0023 9.87826 69.751 10.041C70.874 10.2526 71.6715 10.8792 72.1436 11.9209C72.3877 12.458 72.5098 13.0521 72.5098 13.7031C72.5098 15.3958 71.8424 16.641 70.5078 17.4385C69.7428 17.8942 68.8721 18.1221 67.8955 18.1221V15.0459C68.4652 15.0459 68.8883 14.8587 69.165 14.4844C69.2952 14.3053 69.3604 14.11 69.3604 13.8984C69.3604 13.3939 68.7419 12.9544 67.5049 12.5801C67.3096 12.5312 67.0085 12.4499 66.6016 12.3359C65.7389 12.1081 65.1449 11.9209 64.8193 11.7744C63.6312 11.1722 62.915 10.2852 62.6709 9.11328C62.5895 8.72266 62.5488 8.31576 62.5488 7.89258ZM67.8467 6.98926L67.8711 3.96191C69.3359 3.96191 70.516 4.49902 71.4111 5.57324C71.9808 6.27311 72.2656 7.01367 72.2656 7.79492L69.2627 8.30762C69.2627 7.5752 68.8721 7.14388 68.0908 7.01367C67.9932 6.9974 67.9118 6.98926 67.8467 6.98926ZM79.1016 14.1426L82.2021 13.0439C82.2021 13.4508 82.3161 13.8089 82.5439 14.1182C82.7718 14.4274 82.9997 14.6309 83.2275 14.7285L83.5693 14.8994V18.0732C82.1859 18.0732 81.0059 17.471 80.0293 16.2666C79.4271 15.5016 79.1178 14.7936 79.1016 14.1426ZM79.2969 5.59766C79.2969 3.80729 80.0618 2.46452 81.5918 1.56934C82.2917 1.14616 82.9508 0.926432 83.5693 0.910156V4.13281C83.1624 4.24674 82.8613 4.53971 82.666 5.01172C82.6009 5.1582 82.5684 5.31283 82.5684 5.47559C82.5684 6.1429 83.0648 6.71257 84.0576 7.18457C84.2692 7.28223 84.611 7.42871 85.083 7.62402C85.8643 7.93327 86.4176 8.18555 86.7432 8.38086C88.0615 9.16211 88.9404 9.95964 89.3799 10.7734C89.7054 11.4082 89.8682 12.1162 89.8682 12.8975C89.8682 14.3786 89.3066 15.6481 88.1836 16.7061C87.2233 17.6175 86.1328 18.0732 84.9121 18.0732V14.8994C85.5469 14.818 85.9945 14.4844 86.2549 13.8984C86.3688 13.638 86.4258 13.3532 86.4258 13.0439C86.4258 12.2139 85.8073 11.5303 84.5703 10.9932C84.3424 10.8955 83.9844 10.7572 83.4961 10.5781C82.9264 10.3828 82.5277 10.2282 82.2998 10.1143C80.9001 9.44694 80.0049 8.58431 79.6143 7.52637C79.4027 6.95671 79.2969 6.3138 79.2969 5.59766ZM84.9121 4.13281V0.910156C86.2793 0.910156 87.4268 1.48796 88.3545 2.64355C88.8916 3.32715 89.1683 3.94564 89.1846 4.49902L86.0107 5.54883C86.0107 4.86523 85.6771 4.40137 85.0098 4.15723C84.9447 4.14095 84.9121 4.13281 84.9121 4.13281ZM90.9668 14.7773C90.9668 15.7214 91.4144 16.5189 92.3096 17.1699C93.0745 17.7233 94.0023 18 95.0928 18V14.9971C94.2627 14.9971 93.7988 14.8018 93.7012 14.4111C93.6849 14.3135 93.6768 14.2158 93.6768 14.1182V13.7764C93.693 13.4997 93.7988 13.3125 93.9941 13.2148C94.0755 13.166 94.3766 13.0765 94.8975 12.9463C96.167 12.5882 97.0215 12.279 97.4609 12.0186V14.0205C97.4609 14.5088 97.2331 14.818 96.7773 14.9482C96.6634 14.9808 96.5413 14.9971 96.4111 14.9971V18C97.4202 17.9837 98.2422 17.7233 98.877 17.2188C99.4792 17.7396 100.277 18 101.27 18V14.9727C100.83 14.9401 100.602 14.6797 100.586 14.1914V7.81934C100.586 6.92415 100.212 6.09408 99.4629 5.3291C98.6328 4.49902 97.6074 4.08398 96.3867 4.08398V7.08691C97.0866 7.13574 97.4447 7.45312 97.4609 8.03906V8.60059C97.4609 9.05632 96.5902 9.57715 94.8486 10.1631C93.3512 10.6839 92.4967 11.0013 92.2852 11.1152C91.4225 11.6849 90.9831 12.4906 90.9668 13.5322V14.7773ZM91.1377 7.5752L93.9697 8.64941C93.986 7.62402 94.3685 7.10319 95.1172 7.08691V4.08398C93.9941 4.08398 93.0094 4.49089 92.1631 5.30469C91.4958 5.98828 91.154 6.74512 91.1377 7.5752ZM102.808 18V7.86816C102.808 7.05436 103.166 6.26497 103.882 5.5C104.793 4.55599 105.908 4.07585 107.227 4.05957V7.30664C106.576 7.4043 106.209 7.72982 106.128 8.2832V18H102.808ZM108.35 7.30664V4.05957C109.456 4.07585 110.4 4.37695 111.182 4.96289C111.93 4.36068 112.866 4.05957 113.989 4.05957V7.30664C113.241 7.32292 112.858 7.64844 112.842 8.2832V18H109.521V8.2832C109.489 7.64844 109.098 7.32292 108.35 7.30664ZM115.088 7.30664V4.05957C116.667 4.05957 117.912 4.6862 118.823 5.93945C119.312 6.62305 119.556 7.26595 119.556 7.86816V18H116.235V8.2832C116.203 7.64844 115.82 7.32292 115.088 7.30664ZM121.094 14.7773C121.094 15.7214 121.541 16.5189 122.437 17.1699C123.201 17.7233 124.129 18 125.22 18V14.9971C124.39 14.9971 123.926 14.8018 123.828 14.4111C123.812 14.3135 123.804 14.2158 123.804 14.1182V13.7764C123.82 13.4997 123.926 13.3125 124.121 13.2148C124.202 13.166 124.504 13.0765 125.024 12.9463C126.294 12.5882 127.148 12.279 127.588 12.0186V14.0205C127.588 14.5088 127.36 14.818 126.904 14.9482C126.79 14.9808 126.668 14.9971 126.538 14.9971V18C127.547 17.9837 128.369 17.7233 129.004 17.2188C129.606 17.7396 130.404 18 131.396 18V14.9727C130.957 14.9401 130.729 14.6797 130.713 14.1914V7.81934C130.713 6.92415 130.339 6.09408 129.59 5.3291C128.76 4.49902 127.734 4.08398 126.514 4.08398V7.08691C127.214 7.13574 127.572 7.45312 127.588 8.03906V8.60059C127.588 9.05632 126.717 9.57715 124.976 10.1631C123.478 10.6839 122.624 11.0013 122.412 11.1152C121.549 11.6849 121.11 12.4906 121.094 13.5322V14.7773ZM121.265 7.5752L124.097 8.64941C124.113 7.62402 124.495 7.10319 125.244 7.08691V4.08398C124.121 4.08398 123.136 4.49089 122.29 5.30469C121.623 5.98828 121.281 6.74512 121.265 7.5752ZM132.617 14.7773C132.617 15.7214 133.065 16.5189 133.96 17.1699C134.725 17.7233 135.653 18 136.743 18V14.9971C135.913 14.9971 135.449 14.8018 135.352 14.4111C135.335 14.3135 135.327 14.2158 135.327 14.1182V13.7764C135.343 13.4997 135.449 13.3125 135.645 13.2148C135.726 13.166 136.027 13.0765 136.548 12.9463C137.817 12.5882 138.672 12.279 139.111 12.0186V14.0205C139.111 14.5088 138.883 14.818 138.428 14.9482C138.314 14.9808 138.192 14.9971 138.062 14.9971V18C139.071 17.9837 139.893 17.7233 140.527 17.2188C141.13 17.7396 141.927 18 142.92 18V14.9727C142.48 14.9401 142.253 14.6797 142.236 14.1914V7.81934C142.236 6.92415 141.862 6.09408 141.113 5.3291C140.283 4.49902 139.258 4.08398 138.037 4.08398V7.08691C138.737 7.13574 139.095 7.45312 139.111 8.03906V8.60059C139.111 9.05632 138.241 9.57715 136.499 10.1631C135.002 10.6839 134.147 11.0013 133.936 11.1152C133.073 11.6849 132.633 12.4906 132.617 13.5322V14.7773ZM132.788 7.5752L135.62 8.64941C135.636 7.62402 136.019 7.10319 136.768 7.08691V4.08398C135.645 4.08398 134.66 4.49089 133.813 5.30469C133.146 5.98828 132.804 6.74512 132.788 7.5752ZM144.849 4.81641H148.12V19.0254C148.12 19.8229 147.786 20.6123 147.119 21.3936C146.289 22.3538 145.264 22.8421 144.043 22.8584H142.505L143.237 19.7334H143.945C144.043 19.7334 144.124 19.7171 144.189 19.6846C144.271 19.6683 144.336 19.6439 144.385 19.6113C144.45 19.5788 144.507 19.5462 144.556 19.5137C144.604 19.4811 144.645 19.4404 144.678 19.3916C144.71 19.3428 144.735 19.2939 144.751 19.2451C144.784 19.2126 144.8 19.18 144.8 19.1475C144.816 19.1149 144.832 19.0905 144.849 19.0742V19.0254V4.81641ZM144.678 2.10645C144.678 1.43913 144.979 0.93457 145.581 0.592773C145.858 0.430013 146.151 0.348633 146.46 0.348633C147.144 0.348633 147.656 0.64974 147.998 1.25195C148.145 1.52865 148.218 1.81348 148.218 2.10645C148.218 2.79004 147.917 3.30273 147.314 3.64453C147.038 3.79102 146.753 3.86426 146.46 3.86426C145.76 3.86426 145.239 3.55501 144.897 2.93652C144.751 2.67611 144.678 2.39941 144.678 2.10645ZM161.597 18V14.8262C162.59 14.7285 163.175 14.3135 163.354 13.5811C163.387 13.4346 163.403 13.2799 163.403 13.1172C163.403 12.1406 162.948 11.5221 162.036 11.2617C161.564 11.1152 160.97 11.042 160.254 11.042V7.86816C162.109 7.86816 163.143 7.36361 163.354 6.35449C163.387 6.17546 163.403 5.98828 163.403 5.79297C163.403 4.89779 162.915 4.3444 161.938 4.13281C161.808 4.11654 161.694 4.10026 161.597 4.08398V0.910156C162.964 0.910156 164.128 1.34147 165.088 2.2041C166.081 3.09928 166.577 4.28743 166.577 5.76855C166.577 7.36361 166.089 8.55176 165.112 9.33301C165.047 9.38184 164.99 9.42253 164.941 9.45508C165.837 10.0573 166.366 11.0257 166.528 12.3604C166.561 12.6208 166.577 12.8812 166.577 13.1416C166.577 15.1436 165.739 16.5677 164.062 17.4141C163.265 17.8047 162.443 18 161.597 18ZM155.786 13.6299L158.74 13.0684C158.74 13.931 159.106 14.4925 159.839 14.7529C160.002 14.8018 160.14 14.8262 160.254 14.8262V18C158.952 18 157.837 17.471 156.909 16.4131C156.16 15.5505 155.786 14.6227 155.786 13.6299ZM155.786 5.28027C155.786 4.05957 156.291 2.99349 157.3 2.08203C158.179 1.30078 159.163 0.910156 160.254 0.910156V4.08398C159.57 4.16536 159.106 4.50716 158.862 5.10938C158.781 5.33724 158.74 5.58138 158.74 5.8418L155.786 5.28027ZM168.042 16.291C168.042 15.5586 168.359 15.0133 168.994 14.6553C169.271 14.5088 169.564 14.4355 169.873 14.4355C170.605 14.4355 171.143 14.7529 171.484 15.3877C171.631 15.6644 171.704 15.9655 171.704 16.291C171.704 17.0397 171.379 17.5768 170.728 17.9023C170.451 18.0488 170.166 18.1221 169.873 18.1221C169.124 18.1221 168.587 17.7965 168.262 17.1455C168.115 16.8688 168.042 16.584 168.042 16.291ZM173.535 9.35742L174.243 0.910156H183.008V4.08398H177.197L176.904 7.20898C177.262 7.1276 177.629 7.08691 178.003 7.08691V10.0898C177.271 10.1549 176.742 10.4235 176.416 10.8955C176.383 10.9443 176.359 10.985 176.343 11.0176L173.535 9.35742ZM179.321 18V14.9238C180.249 14.7611 180.859 14.2402 181.152 13.3613C181.234 13.1009 181.274 12.8242 181.274 12.5312C181.274 11.6035 180.9 10.8955 180.151 10.4072C179.875 10.2282 179.598 10.1224 179.321 10.0898V7.08691C181.34 7.13574 182.796 7.9821 183.691 9.62598C184.163 10.5049 184.399 11.4814 184.399 12.5557C184.399 14.4925 183.691 15.9818 182.275 17.0234C181.38 17.6419 180.396 17.9674 179.321 18ZM173.169 13.7031L176.123 13.1416C176.156 13.8089 176.562 14.3216 177.344 14.6797C177.588 14.7936 177.783 14.8506 177.93 14.8506V18.0244C176.644 18.0244 175.496 17.528 174.487 16.5352C173.625 15.6562 173.185 14.7122 173.169 13.7031ZM185.767 3.96191C185.767 3.0179 186.157 2.28548 186.938 1.76465C187.394 1.47168 187.882 1.3252 188.403 1.3252C189.347 1.3252 190.08 1.71582 190.601 2.49707C190.894 2.9528 191.04 3.44108 191.04 3.96191C191.04 4.90592 190.649 5.63835 189.868 6.15918C189.412 6.45215 188.924 6.59863 188.403 6.59863C187.459 6.59863 186.727 6.20801 186.206 5.42676C185.913 4.97103 185.767 4.48275 185.767 3.96191ZM189.038 18.5615L193.311 0.519531H196.387L192.139 18.5615H189.038ZM194.58 15.1436C194.58 14.1995 194.971 13.4671 195.752 12.9463C196.208 12.6533 196.696 12.5068 197.217 12.5068C198.161 12.5068 198.893 12.8975 199.414 13.6787C199.707 14.1344 199.854 14.6227 199.854 15.1436C199.854 16.0876 199.463 16.82 198.682 17.3408C198.226 17.6338 197.738 17.7803 197.217 17.7803C196.273 17.7803 195.54 17.3896 195.02 16.6084C194.727 16.1527 194.58 15.6644 194.58 15.1436ZM201.221 3.08301C202.165 1.89486 203.288 1.17871 204.59 0.93457C204.98 0.869466 205.387 0.836914 205.811 0.836914C207.845 0.836914 209.31 1.60189 210.205 3.13184C210.693 3.96191 210.954 4.9222 210.986 6.0127C210.986 6.90788 210.848 7.7054 210.571 8.40527C210.295 9.08887 209.953 9.60156 209.546 9.94336C209.139 10.2852 208.732 10.57 208.325 10.7979C207.935 11.0094 207.601 11.1396 207.324 11.1885L206.909 11.2617V13.9473H203.76V8.57617C205.469 8.54362 206.584 8.34017 207.104 7.96582C207.609 7.5752 207.861 6.90788 207.861 5.96387C207.861 5.10124 207.446 4.49902 206.616 4.15723C206.291 4.02702 205.957 3.96191 205.615 3.96191C204.622 3.97819 203.825 4.37695 203.223 5.1582L201.221 3.08301ZM203.467 16.7061C203.467 15.9736 203.784 15.4284 204.419 15.0703C204.696 14.9238 204.989 14.8506 205.298 14.8506C206.03 14.8506 206.576 15.168 206.934 15.8027C207.08 16.0957 207.153 16.3968 207.153 16.7061C207.153 17.4385 206.836 17.9756 206.201 18.3174C205.924 18.4639 205.623 18.5371 205.298 18.5371C204.549 18.5371 204.012 18.2116 203.687 17.5605C203.54 17.2839 203.467 16.999 203.467 16.7061Z" fill="white"/>
</svg>
